<svg width="17" height="22" viewBox="0 0 17 22" fill="none" xmlns="http://www.w3.org/2000/svg">
<path d="M3.5 1L1 5V19C1 19.5304 1.17559 20.0391 1.48816 20.4142C1.80072 20.7893 2.22464 21 2.66667 21H14.3333C14.7754 21 15.1993 20.7893 15.5118 20.4142C15.8244 20.0391 16 19.5304 16 19V5L13.5 1H3.5Z" stroke="#4B566B" stroke-linecap="round" stroke-linejoin="round"/>
<path d="M1 5H16" stroke="#4B566B" stroke-linecap="round" stroke-linejoin="round"/>
<path d="M11.8346 9C11.8346 10.0609 11.4834 11.0783 10.8583 11.8284C10.2332 12.5786 9.38536 13 8.5013 13C7.61725 13 6.7694 12.5786 6.14428 11.8284C5.51916 11.0783 5.16797 10.0609 5.16797 9" stroke="#4B566B" stroke-linecap="round" stroke-linejoin="round"/>
</svg>
