<svg width="78" height="87" viewBox="0 0 78 87" fill="none" xmlns="http://www.w3.org/2000/svg">
<path d="M72.6789 37.0237C70.1538 32.8223 66.6962 29.2146 62.6216 26.5045C65.7226 22.8021 69.125 17.6288 69.125 12.75C69.125 5.92639 63.5736 0.375 56.75 0.375C49.9264 0.375 44.375 5.92639 44.375 12.75C44.375 15.5502 45.4965 18.4471 47.0379 21.1078C46.152 21.0365 45.2637 21.0005 44.375 21C37.6812 21 31.2353 22.9941 25.7352 26.7662C24.5019 27.612 23.3272 28.5402 22.2191 29.5444C19.9473 26.8448 16.5464 25.1248 12.75 25.1248C5.92639 25.1248 0.375 30.6762 0.375 37.4998C0.375 45.4322 9.36819 54.1437 11.4381 56.0434C12.8267 81.4739 42.3163 95.766 63.1537 81.1397C68.5564 77.3949 72.6825 72.195 75.086 66.1024C75.0911 66.0893 75.0963 66.0763 75.1009 66.063C76.6098 62.2189 77.375 58.1604 77.375 53.9998C77.375 48.005 75.7511 42.1346 72.6789 37.0236V37.0237ZM74.625 54C74.625 56.9379 74.2077 59.819 73.3851 62.5974L71.6263 60.0863C71.442 59.8233 71.1717 59.6331 70.862 59.5485L60.1208 56.6189C58.4457 52.0597 54.1598 48.752 49.0845 48.5148L48.5002 47.9304V44.0735L52.5703 43.056L56.3153 44.3044C56.5331 44.3769 56.7656 44.3938 56.9916 44.3535C57.2176 44.3132 57.4299 44.2171 57.6092 44.0737L63.9839 38.974L70.2305 40.2234C70.5702 40.2908 70.9229 40.2272 71.2178 40.0455C73.4502 44.3353 74.6252 49.1217 74.6252 54.0002L74.625 54ZM38.875 60.875C38.875 55.5678 43.1927 51.25 48.5 51.25C53.8073 51.25 58.125 55.5678 58.125 60.875C58.125 67.0728 51.0539 74.4215 48.5 76.8733C45.9459 74.4213 38.875 67.0728 38.875 60.875ZM56.75 3.125C62.0573 3.125 66.375 7.44284 66.375 12.75C66.375 18.9478 59.3039 26.2965 56.75 28.7483C54.1959 26.2963 47.125 18.9478 47.125 12.75C47.125 7.44284 51.4427 3.125 56.75 3.125ZM48.9977 24.1017C52.0688 28.3239 55.5843 31.432 55.8447 31.6599C56.1039 31.8867 56.427 32 56.7502 32C57.0733 32 57.3964 31.8866 57.6556 31.6599C57.81 31.5248 59.1093 30.3768 60.7817 28.5845C64.2757 30.845 67.2868 33.8229 69.5911 37.291L63.895 36.1518C63.6982 36.1125 63.4952 36.1167 63.3003 36.1642C63.1053 36.2116 62.923 36.3011 62.7663 36.4265L56.4755 41.4591L53.0602 40.3206C52.812 40.238 52.5455 40.2278 52.2917 40.2911L46.7917 41.6661C46.4942 41.7404 46.2301 41.9121 46.0414 42.1538C45.8527 42.3955 45.7502 42.6934 45.7502 43V48.5C45.7502 48.6031 45.7629 48.7047 45.7854 48.8037C44.8205 49.0204 43.8853 49.3529 43.0002 49.7939V44.375C43.0002 44.1197 42.9291 43.8694 42.7948 43.6522C42.6606 43.435 42.4685 43.2594 42.2401 43.1452L37.5002 40.7752V36.125C37.5002 35.7603 37.3553 35.4106 37.0974 35.1527C36.8396 34.8949 36.4898 34.75 36.1252 34.75H31.4748L28.2885 28.3788C33.1036 25.3471 38.6395 23.75 44.375 23.75C45.9236 23.75 47.4756 23.8688 48.9977 24.1017ZM26.0076 29.9657L29.3954 36.74C29.5096 36.9683 29.6851 37.1604 29.9023 37.2946C30.1195 37.4289 30.3698 37.5 30.6252 37.5H34.7502V41.625C34.7502 41.8803 34.8213 42.1306 34.9555 42.3478C35.0898 42.565 35.2818 42.7406 35.5102 42.8548L40.2502 45.2248V51.25C40.2502 51.3755 40.2692 51.4982 40.3019 51.6163C37.7425 53.885 36.1252 57.194 36.1252 60.875C36.1252 63.7025 37.2687 66.6289 38.8332 69.3106L35.6144 70.5983C35.402 70.6833 35.2143 70.8198 35.068 70.9956C34.9218 71.1714 34.8217 71.3809 34.7768 71.6052L32.7133 81.9195C29.6924 80.6595 26.9213 78.927 24.4458 76.7547L29.0769 68.4176C29.146 68.2932 29.1954 68.159 29.2234 68.0195L30.5984 61.1445C30.6575 60.8487 30.6177 60.5417 30.4852 60.2708C30.3527 59.9998 30.1348 59.78 29.865 59.6451L28.3447 58.885L31.8548 51.8648C31.9689 51.6364 32.0173 51.3808 31.9943 51.1265C31.9714 50.8722 31.8782 50.6293 31.725 50.425L27.6 44.925C27.4376 44.7085 27.215 44.5447 26.96 44.4542C26.705 44.3637 26.4289 44.3504 26.1664 44.4161L22.8009 45.2574C24.1652 42.7647 25.1248 40.0908 25.1248 37.5C25.1262 35.5393 24.6586 33.6067 23.761 31.8635C24.4788 31.1952 25.2285 30.5619 26.0072 29.9657H26.0076ZM12.7502 27.875C18.0575 27.875 22.3752 32.1928 22.3752 37.5C22.3752 43.6978 15.3041 51.0465 12.7502 53.4983C10.1961 51.0463 3.12517 43.6978 3.12517 37.5C3.12517 32.1928 7.44284 27.875 12.7502 27.875ZM14.186 55.9295C15.3668 54.8358 18.2567 52.0207 20.7704 48.479C20.9575 48.5115 21.1494 48.5047 21.3338 48.4591L25.9481 47.3055L29.0156 51.3952L25.2706 58.8852C25.1075 59.2114 25.0806 59.5889 25.1959 59.9349C25.3112 60.2808 25.5592 60.5668 25.8854 60.7299L27.6961 61.6354L26.5691 67.2701L22.3961 74.7824C17.519 69.6353 14.6317 63.0238 14.1862 55.9298L14.186 55.9295ZM44.3752 84.25C41.2823 84.25 38.2446 83.7863 35.3273 82.8719L37.3273 72.8751L40.3476 71.6669C43.505 76.1721 47.323 79.5472 47.5947 79.7849C47.8539 80.0117 48.177 80.125 48.5002 80.125C48.8233 80.125 49.1464 80.0116 49.4056 79.7849C49.8741 79.3751 60.8752 69.6482 60.8752 60.875C60.8752 60.4646 60.854 60.0589 60.8147 59.6586L69.6588 62.0707L72.2505 65.7709C67.5037 77.0209 56.6419 84.25 44.3752 84.25Z" fill="#17BEBB"/>
<path d="M19.625 37.5C19.625 33.7091 16.5409 30.625 12.75 30.625C8.95913 30.625 5.875 33.7091 5.875 37.5C5.875 41.2909 8.95913 44.375 12.75 44.375C16.5409 44.375 19.625 41.2909 19.625 37.5ZM8.625 37.5C8.625 35.2256 10.4756 33.375 12.75 33.375C15.0244 33.375 16.875 35.2256 16.875 37.5C16.875 39.7744 15.0244 41.625 12.75 41.625C10.4756 41.625 8.625 39.7744 8.625 37.5ZM55.375 60.875C55.375 57.0841 52.2909 54 48.5 54C44.7091 54 41.625 57.0841 41.625 60.875C41.625 64.6659 44.7091 67.75 48.5 67.75C52.2909 67.75 55.375 64.6659 55.375 60.875ZM44.375 60.875C44.375 58.6006 46.2256 56.75 48.5 56.75C50.7744 56.75 52.625 58.6006 52.625 60.875C52.625 63.1494 50.7744 65 48.5 65C46.2256 65 44.375 63.1494 44.375 60.875ZM63.625 12.75C63.625 8.95913 60.5409 5.875 56.75 5.875C52.9591 5.875 49.875 8.95913 49.875 12.75C49.875 16.5409 52.9591 19.625 56.75 19.625C60.5409 19.625 63.625 16.5409 63.625 12.75ZM52.625 12.75C52.625 10.4756 54.4756 8.625 56.75 8.625C59.0244 8.625 60.875 10.4756 60.875 12.75C60.875 15.0244 59.0244 16.875 56.75 16.875C54.4756 16.875 52.625 15.0244 52.625 12.75Z" fill="#17BEBB"/>
</svg>
