<svg width="88" height="88" viewBox="0 0 88 88" fill="none" xmlns="http://www.w3.org/2000/svg">
<path d="M57.75 57.75C57.75 56.2913 57.1705 54.8924 56.1391 53.8609C55.1076 52.8295 53.7087 52.25 52.25 52.25H34.5537L35.75 42.79C35.7568 42.7352 35.7568 42.6798 35.75 42.625C35.75 35.0075 30.36 33 27.5 33C27.1914 32.9886 26.8879 33.0814 26.6385 33.2635C26.389 33.4456 26.2082 33.7063 26.125 34.0037L20.625 53.1025C19.7011 54.9242 18.2681 56.4385 16.5 57.4613V56.375C16.5 56.0103 16.3551 55.6606 16.0973 55.4027C15.8394 55.1449 15.4897 55 15.125 55H1.375C1.01033 55 0.660591 55.1449 0.402728 55.4027C0.144866 55.6606 0 56.0103 0 56.375L0 86.625C0 86.9897 0.144866 87.3394 0.402728 87.5973C0.660591 87.8551 1.01033 88 1.375 88H15.125C15.4897 88 15.8394 87.8551 16.0973 87.5973C16.3551 87.3394 16.5 86.9897 16.5 86.625V85.7038L24.3787 88C24.5016 88.021 24.6271 88.021 24.75 88H48.125C49.1667 87.9853 50.1827 87.6751 51.055 87.1054C51.9272 86.5358 52.6197 85.7301 53.0519 84.7822C53.484 83.8343 53.6381 82.7831 53.4962 81.7511C53.3542 80.719 52.922 79.7485 52.25 78.9525C52.9311 78.5426 53.5152 77.9898 53.9622 77.3324C54.4091 76.675 54.7082 75.9285 54.8389 75.1444C54.9696 74.3603 54.9288 73.5571 54.7192 72.7903C54.5096 72.0235 54.1363 71.3112 53.625 70.7025C54.3061 70.2926 54.8902 69.7398 55.3372 69.0824C55.7841 68.425 56.0832 67.6785 56.2139 66.8944C56.3446 66.1103 56.3038 65.3071 56.0942 64.5403C55.8846 63.7735 55.5113 63.0612 55 62.4525C55.8273 61.975 56.5159 61.2902 56.9981 60.4656C57.4803 59.6411 57.7394 58.7051 57.75 57.75ZM13.75 85.25H2.75V57.75H13.75V85.25ZM48.125 85.25H24.9425L16.5 82.8438V60.335C20.625 59.3863 23.1137 54.4775 23.2237 54.2438C23.2617 54.1637 23.2939 54.081 23.32 53.9963L28.5037 35.8738C30.1125 36.2313 32.9725 37.565 33 42.5425L31.625 53.46C31.6015 53.6519 31.6188 53.8466 31.6756 54.0314C31.7325 54.2163 31.8277 54.387 31.955 54.5325C32.0854 54.6809 32.2462 54.7995 32.4265 54.8802C32.6069 54.9609 32.8025 55.0017 33 55H52.25C52.9793 55 53.6788 55.2897 54.1945 55.8055C54.7103 56.3212 55 57.0207 55 57.75C55 58.4793 54.7103 59.1788 54.1945 59.6945C53.6788 60.2103 52.9793 60.5 52.25 60.5H45.375C45.0103 60.5 44.6606 60.6449 44.4027 60.9027C44.1449 61.1606 44 61.5103 44 61.875C44 62.2397 44.1449 62.5894 44.4027 62.8473C44.6606 63.1051 45.0103 63.25 45.375 63.25H50.875C51.6043 63.25 52.3038 63.5397 52.8195 64.0555C53.3353 64.5712 53.625 65.2707 53.625 66C53.625 66.7293 53.3353 67.4288 52.8195 67.9445C52.3038 68.4603 51.6043 68.75 50.875 68.75H44C43.6353 68.75 43.2856 68.8949 43.0277 69.1527C42.7699 69.4106 42.625 69.7603 42.625 70.125C42.625 70.4897 42.7699 70.8394 43.0277 71.0973C43.2856 71.3551 43.6353 71.5 44 71.5H49.5C50.2293 71.5 50.9288 71.7897 51.4445 72.3055C51.9603 72.8212 52.25 73.5207 52.25 74.25C52.25 74.9793 51.9603 75.6788 51.4445 76.1945C50.9288 76.7103 50.2293 77 49.5 77H42.625C42.2603 77 41.9106 77.1449 41.6527 77.4027C41.3949 77.6606 41.25 78.0103 41.25 78.375C41.25 78.7397 41.3949 79.0894 41.6527 79.3473C41.9106 79.6051 42.2603 79.75 42.625 79.75H48.125C48.8543 79.75 49.5538 80.0397 50.0695 80.5555C50.5853 81.0712 50.875 81.7707 50.875 82.5C50.875 83.2293 50.5853 83.9288 50.0695 84.4445C49.5538 84.9603 48.8543 85.25 48.125 85.25ZM17.875 20.625H19.25V22C19.25 22.3647 19.3949 22.7144 19.6527 22.9723C19.9106 23.2301 20.2603 23.375 20.625 23.375C20.9897 23.375 21.3394 23.2301 21.5973 22.9723C21.8551 22.7144 22 22.3647 22 22V20.625H23.375C23.7397 20.625 24.0894 20.4801 24.3473 20.2223C24.6051 19.9644 24.75 19.6147 24.75 19.25C24.75 18.8853 24.6051 18.5356 24.3473 18.2777C24.0894 18.0199 23.7397 17.875 23.375 17.875H22V16.5C22 16.1353 21.8551 15.7856 21.5973 15.5277C21.3394 15.2699 20.9897 15.125 20.625 15.125C20.2603 15.125 19.9106 15.2699 19.6527 15.5277C19.3949 15.7856 19.25 16.1353 19.25 16.5V17.875H17.875C17.5103 17.875 17.1606 18.0199 16.9027 18.2777C16.6449 18.5356 16.5 18.8853 16.5 19.25C16.5 19.6147 16.6449 19.9644 16.9027 20.2223C17.1606 20.4801 17.5103 20.625 17.875 20.625ZM74.25 68.75H72.875V67.375C72.875 67.0103 72.7301 66.6606 72.4723 66.4027C72.2144 66.1449 71.8647 66 71.5 66C71.1353 66 70.7856 66.1449 70.5277 66.4027C70.2699 66.6606 70.125 67.0103 70.125 67.375V68.75H68.75C68.3853 68.75 68.0356 68.8949 67.7777 69.1527C67.5199 69.4106 67.375 69.7603 67.375 70.125C67.375 70.4897 67.5199 70.8394 67.7777 71.0973C68.0356 71.3551 68.3853 71.5 68.75 71.5H70.125V72.875C70.125 73.2397 70.2699 73.5894 70.5277 73.8473C70.7856 74.1051 71.1353 74.25 71.5 74.25C71.8647 74.25 72.2144 74.1051 72.4723 73.8473C72.7301 73.5894 72.875 73.2397 72.875 72.875V71.5H74.25C74.6147 71.5 74.9644 71.3551 75.2223 71.0973C75.4801 70.8394 75.625 70.4897 75.625 70.125C75.625 69.7603 75.4801 69.4106 75.2223 69.1527C74.9644 68.8949 74.6147 68.75 74.25 68.75Z" fill="#17BEBB"/>
<path d="M57.75 -8.92393e-06C49.7272 -8.92393e-06 42.033 3.18704 36.36 8.86001C30.687 14.533 27.5 22.2272 27.5 30.25C27.5 30.6147 27.6449 30.9644 27.9027 31.2223C28.1606 31.4801 28.5103 31.625 28.875 31.625C29.2397 31.625 29.5894 31.4801 29.8473 31.2223C30.1051 30.9644 30.25 30.6147 30.25 30.25C30.2516 25.0356 31.7357 19.9292 34.5292 15.5262C37.3226 11.1232 41.3103 7.60521 46.0272 5.3824C50.744 3.1596 55.9956 2.32364 61.1695 2.97202C66.3434 3.6204 71.2263 5.7264 75.2488 9.04441C79.2713 12.3624 82.2675 16.7557 83.8881 21.7118C85.5087 26.6679 85.6868 31.9827 84.4017 37.0362C83.1166 42.0897 80.4212 46.6737 76.6299 50.2536C72.8386 53.8335 68.1076 56.2617 62.9888 57.255C62.6241 57.2896 62.2881 57.4677 62.0547 57.7501C61.8214 58.0324 61.7097 58.3959 61.7444 58.7606C61.779 59.1253 61.9571 59.4613 62.2395 59.6946C62.5218 59.928 62.8853 60.0396 63.25 60.005H63.5112C70.9653 58.6421 77.6363 54.5313 82.2047 48.4857C86.7732 42.4401 88.9063 34.9001 88.1821 27.3572C87.4578 19.8143 83.9291 12.8179 78.2938 7.75202C72.6585 2.68612 65.3272 -0.0803018 57.75 -8.92393e-06Z" fill="#17BEBB"/>
<path d="M70.125 35.75C70.125 32.8326 68.9661 30.0347 66.9032 27.9718C64.8403 25.9089 62.0424 24.75 59.125 24.75H56.375C55.6457 24.75 54.9462 24.4603 54.4305 23.9445C53.9147 23.4288 53.625 22.7293 53.625 22C53.625 21.2707 53.9147 20.5712 54.4305 20.0555C54.9462 19.5397 55.6457 19.25 56.375 19.25H66C67.094 19.25 68.1432 18.8154 68.9168 18.0418C69.6904 17.2682 70.125 16.219 70.125 15.125C70.125 14.031 69.6904 12.9818 68.9168 12.2082C68.1432 11.4346 67.094 11 66 11H61.875V6.875C61.875 6.51033 61.7301 6.16059 61.4723 5.90273C61.2144 5.64487 60.8647 5.5 60.5 5.5H55C54.6353 5.5 54.2856 5.64487 54.0277 5.90273C53.7699 6.16059 53.625 6.51033 53.625 6.875V11.3575C51.04 12.0331 48.7892 13.6264 47.293 15.84C45.7968 18.0536 45.1574 20.7361 45.4942 23.3866C45.8309 26.0371 47.1209 28.4745 49.1232 30.2435C51.1255 32.0126 53.7032 32.9924 56.375 33H59.125C59.8543 33 60.5538 33.2897 61.0695 33.8055C61.5853 34.3212 61.875 35.0207 61.875 35.75C61.875 36.4793 61.5853 37.1788 61.0695 37.6945C60.5538 38.2103 59.8543 38.5 59.125 38.5H49.5C48.406 38.5 47.3568 38.9346 46.5832 39.7082C45.8096 40.4818 45.375 41.531 45.375 42.625C45.375 43.719 45.8096 44.7682 46.5832 45.5418C47.3568 46.3154 48.406 46.75 49.5 46.75H53.625V50.875C53.625 51.2397 53.7699 51.5894 54.0277 51.8473C54.2856 52.1051 54.6353 52.25 55 52.25H60.5C60.8647 52.25 61.2144 52.1051 61.4723 51.8473C61.7301 51.5894 61.875 51.2397 61.875 50.875V46.3925C64.2349 45.7832 66.3255 44.4074 67.8188 42.4811C69.312 40.5549 70.1232 38.1872 70.125 35.75ZM60.3075 43.9038C59.9771 43.9504 59.675 44.1157 59.4574 44.3687C59.2399 44.6216 59.1217 44.9451 59.125 45.2788V49.5H56.375V45.375C56.375 45.0103 56.2301 44.6606 55.9723 44.4027C55.7144 44.1449 55.3647 44 55 44H49.5C49.1353 44 48.7856 43.8551 48.5277 43.5973C48.2699 43.3394 48.125 42.9897 48.125 42.625C48.125 42.2603 48.2699 41.9106 48.5277 41.6527C48.7856 41.3949 49.1353 41.25 49.5 41.25H59.125C60.5837 41.25 61.9826 40.6705 63.0141 39.6391C64.0455 38.6076 64.625 37.2087 64.625 35.75C64.625 34.2913 64.0455 32.8924 63.0141 31.8609C61.9826 30.8295 60.5837 30.25 59.125 30.25H56.375C54.3022 30.2319 52.3121 29.4342 50.8007 28.0154C49.2893 26.5967 48.3674 24.6611 48.2183 22.5935C48.0693 20.5259 48.7041 18.478 49.9963 16.8572C51.2886 15.2364 53.1437 14.1615 55.1925 13.8462C55.5229 13.7996 55.825 13.6343 56.0426 13.3813C56.2601 13.1284 56.3783 12.8049 56.375 12.4712V8.25H59.125V12.375C59.125 12.7397 59.2699 13.0894 59.5277 13.3473C59.7856 13.6051 60.1353 13.75 60.5 13.75H66C66.3647 13.75 66.7144 13.8949 66.9723 14.1527C67.2301 14.4106 67.375 14.7603 67.375 15.125C67.375 15.4897 67.2301 15.8394 66.9723 16.0973C66.7144 16.3551 66.3647 16.5 66 16.5H56.375C54.9163 16.5 53.5174 17.0795 52.4859 18.1109C51.4545 19.1424 50.875 20.5413 50.875 22C50.875 23.4587 51.4545 24.8576 52.4859 25.8891C53.5174 26.9205 54.9163 27.5 56.375 27.5H59.125C61.1978 27.5181 63.1879 28.3158 64.6993 29.7346C66.2107 31.1533 67.1326 33.0889 67.2817 35.1565C67.4307 37.2241 66.7959 39.272 65.5037 40.8928C64.2114 42.5136 62.3563 43.5885 60.3075 43.9038Z" fill="#17BEBB"/>
</svg>
