<svg width="88" height="88" viewBox="0 0 88 88" fill="none" xmlns="http://www.w3.org/2000/svg">
<g clip-path="url(#clip0_1872_4707)">
<path d="M71.4162 76.6452L68.1304 66.7863C67.5669 65.0967 66.5597 63.5896 65.2141 62.4227C63.8684 61.2558 62.2338 60.4722 60.4815 60.1537L50.9959 58.4277V57.6925C52.6466 56.7344 54.083 55.4528 55.227 53.9355H58.0927C60.4403 53.9355 62.3507 52.025 62.3507 49.6774V32.6452C62.3507 22.4712 54.0731 14.1935 43.8991 14.1935C33.7252 14.1935 25.4475 22.4712 25.4475 32.6452V42.5806C25.4475 45.3172 27.3934 47.6066 29.9738 48.1403C30.7701 52.2195 33.3193 55.6714 36.8024 57.6925V58.4277L27.3154 60.1537C25.5632 60.4722 23.9288 61.2559 22.5834 62.4228C21.238 63.5896 20.231 65.0968 19.6679 66.7863L19.1002 68.491L14.2658 63.6566C13.7123 63.1031 13.7123 62.2018 14.2658 61.6483L19.8723 56.0432L9.34919 45.5201L3.01319 51.8561C1.13681 53.7325 0.103516 56.2277 0.103516 58.8819C0.103516 61.5361 1.13681 64.0299 3.01319 65.9063L22.1958 85.0889C24.0722 86.9653 26.5674 88 29.2216 88C31.8758 88 34.3696 86.9653 36.202 85.1315L43.1156 78.7969L40.9596 76.6452H71.4162ZM59.512 49.6774C59.512 50.4609 58.8747 51.0968 58.0927 51.0968H56.899C57.3152 50.1483 57.6255 49.1568 57.8244 48.1403C58.4319 48.0139 58.9911 47.7726 59.512 47.4689V49.6774ZM58.0927 45.0248V40.1365C58.9372 40.629 59.512 41.5346 59.512 42.5806C59.512 43.6267 58.9372 44.5323 58.0927 45.0248ZM29.7056 45.0248C28.8611 44.5323 28.2862 43.6267 28.2862 42.5806C28.2862 41.5346 28.8611 40.629 29.7056 40.1365V45.0248ZM29.7056 35.4839V37.1048C29.2078 37.2349 28.7303 37.4326 28.2862 37.6924V32.6452C28.2862 24.0368 35.2907 17.0323 43.8991 17.0323C52.5075 17.0323 59.512 24.0368 59.512 32.6452V37.6924C59.0683 37.432 58.5906 37.2342 58.0927 37.1048V35.4839H56.6733C52.4763 35.4839 48.5305 33.8488 45.5612 30.8809L43.8991 29.2188L42.2371 30.8809C39.2678 33.8488 35.322 35.4839 31.1249 35.4839H29.7056ZM32.5443 45.4194V38.2686C36.8066 37.9479 40.7808 36.1893 43.8991 33.2243C47.0174 36.1893 50.9916 37.9493 55.254 38.2686V45.4194C55.254 47.4888 54.6891 49.4248 53.7182 51.0968H43.8991V53.9355H51.3848C49.3835 55.6969 46.7676 56.7742 43.8991 56.7742C37.6384 56.7742 32.5443 51.6801 32.5443 45.4194ZM48.1572 58.9586V59.0253L43.8991 63.2834L39.6411 59.0253V58.9586C40.9866 59.3815 42.4159 59.6129 43.8991 59.6129C45.3824 59.6129 46.8116 59.3815 48.1572 58.9586ZM22.359 67.6834C22.7614 66.4763 23.4807 65.3997 24.4418 64.5659C25.4029 63.7322 26.5704 63.1721 27.8221 62.9441L37.7434 61.1415L43.8991 67.2973L50.0535 61.143L59.9733 62.9455C61.2252 63.1732 62.3928 63.7333 63.3539 64.567C64.315 65.4008 65.0343 66.4776 65.4364 67.6848L67.4789 73.8064H38.1209L32.5925 68.2781L26.4496 73.8348C25.9145 74.3728 24.9791 74.3728 24.4426 73.8348L21.3427 70.735L22.359 67.6834ZM9.34777 49.5341L15.8569 56.0432L14.3155 57.5846L7.80635 51.0755L9.34777 49.5341ZM34.2362 83.0848C32.8963 84.4218 31.1136 85.1613 29.2187 85.1613C27.3239 85.1613 25.5412 84.4218 24.1999 83.0819L5.01732 63.9008C3.67745 62.5609 2.93939 60.7782 2.93939 58.8834C2.93939 56.9871 3.67745 55.2044 5.01732 53.8645L5.79797 53.0839L12.3071 59.593L12.256 59.6441C10.5968 61.3048 10.5968 64.0058 12.256 65.6665L22.4342 75.8446C23.239 76.648 24.3078 77.0923 25.4461 77.0923C26.5844 77.0923 27.6532 76.6494 28.4055 75.8943L28.5119 75.7992L35.0509 82.3382L34.2362 83.0848ZM37.1458 80.4164L30.6211 73.8916L32.496 72.1969L39.0094 78.7103L37.1458 80.4164ZM83.6411 0H63.7701C61.4225 0 59.512 1.91045 59.512 4.25806V15.6129C59.512 17.9605 61.4225 19.871 63.7701 19.871H67.5612L66.0936 28.4311L79.7904 19.871H83.6411C85.9887 19.871 87.8991 17.9605 87.8991 15.6129V4.25806C87.8991 1.91045 85.9887 0 83.6411 0ZM85.0604 15.6129C85.0604 16.395 84.4231 17.0323 83.6411 17.0323H78.9756L69.9613 22.6657L70.9279 17.0323H63.7701C62.988 17.0323 62.3507 16.395 62.3507 15.6129V4.25806C62.3507 3.476 62.988 2.83871 63.7701 2.83871H83.6411C84.4231 2.83871 85.0604 3.476 85.0604 4.25806V15.6129Z" fill="#17BEBB"/>
<path d="M65.1889 5.67741H82.2212V8.51612H65.1889V5.67741ZM65.1889 11.3548H76.5438V14.1935H65.1889V11.3548ZM79.3825 11.3548H82.2212V14.1935H79.3825V11.3548ZM43.8986 4.25806C25.3533 4.25806 9.37847 17.0862 5.22543 34.98L2.53576 30.4963L0.101562 31.9568L5.09059 40.2699L13.4038 35.2809L11.9432 32.8467L8.09679 35.1546C12.1192 18.7852 26.8394 7.09677 43.8986 7.09677C47.6272 7.09677 51.3062 7.65031 54.8333 8.74322L55.6736 6.03225C51.874 4.85419 47.9125 4.25806 43.8986 4.25806ZM87.2088 31.4273L78.8956 26.4383L73.908 34.7529L76.3422 36.2134L78.8261 32.0732C80.1333 35.8983 80.8018 39.8995 80.8018 44C80.8018 52.4409 77.878 60.693 72.571 67.2348L74.7752 69.0232C80.4924 61.9775 83.6405 53.0895 83.6405 44C83.6405 39.6582 82.9408 35.4186 81.5768 31.3592L85.7483 33.8615L87.2088 31.4273Z" fill="#17BEBB"/>
</g>
<defs>
<clipPath id="clip0_1872_4707">
<rect width="88" height="88" fill="white"/>
</clipPath>
</defs>
</svg>
