<svg width="12" height="19" viewBox="0 0 12 19" fill="none" xmlns="http://www.w3.org/2000/svg">
<path fill-rule="evenodd" clip-rule="evenodd" d="M10.9648 7.46549C10.9648 8.40082 10.6798 9.49132 10.183 10.6556C9.69172 11.8079 9.02609 12.9559 8.34547 13.9868C7.75745 14.8716 7.13233 15.7226 6.47234 16.5367L6.27734 16.7754C5.54523 15.8895 4.85486 14.9586 4.20922 13.9868C3.52859 12.9559 2.86297 11.8079 2.37172 10.6556C1.87578 9.49132 1.58984 8.40082 1.58984 7.46549C1.58984 6.0266 2.0837 4.64665 2.96278 3.62919C3.84186 2.61174 5.03414 2.04015 6.27734 2.04015C7.52055 2.04015 8.71283 2.61174 9.59191 3.62919C10.471 4.64665 10.9648 6.0266 10.9648 7.46549ZM11.9023 7.46549C11.9023 12.1465 6.27734 18.3162 6.27734 18.3162C6.27734 18.3162 0.652344 12.1465 0.652344 7.46549C0.652344 5.73882 1.24498 4.08287 2.29987 2.86193C3.35476 1.641 4.7855 0.955078 6.27734 0.955078C7.76919 0.955078 9.19993 1.641 10.2548 2.86193C11.3097 4.08287 11.9023 5.73882 11.9023 7.46549ZM7.60317 9.00002C7.25154 9.407 6.77462 9.63563 6.27734 9.63563C5.78006 9.63563 5.30315 9.407 4.95152 9.00002C4.59989 8.59304 4.40234 8.04105 4.40234 7.4655C4.40234 6.88994 4.59989 6.33795 4.95152 5.93097C5.30315 5.52399 5.78006 5.29536 6.27734 5.29536C6.77462 5.29536 7.25154 5.52399 7.60317 5.93097C7.9548 6.33795 8.15234 6.88994 8.15234 7.4655C8.15234 8.04105 7.9548 8.59304 7.60317 9.00002ZM8.26608 9.76728C7.73864 10.3777 7.02327 10.7207 6.27734 10.7207C5.53142 10.7207 4.81605 10.3777 4.28861 9.76728C3.76116 9.15681 3.46484 8.32883 3.46484 7.4655C3.46484 6.60216 3.76116 5.77419 4.28861 5.16372C4.81605 4.55325 5.53142 4.21029 6.27734 4.21029C7.02327 4.21029 7.73864 4.55325 8.26608 5.16372C8.79353 5.77419 9.08984 6.60216 9.08984 7.4655C9.08984 8.32883 8.79353 9.15681 8.26608 9.76728Z" fill="#F3F5F9"/>
</svg>
