<svg width="1057" height="901" viewBox="0 0 1057 901" fill="none" xmlns="http://www.w3.org/2000/svg">
<path opacity="0.19" d="M2.50086 285.373C94.5467 374.081 226.71 436.94 365.093 457.811C446.279 470.055 529.419 468.899 616.949 454.175C614.5 452.937 612.09 451.59 609.721 450.132C569.718 455.1 531.904 457.088 494.971 456.149C456.75 455.181 418.034 451.025 379.894 443.798C338.24 435.888 296.045 423.841 254.508 407.989C167.009 374.636 88.1023 326.66 26.3147 269.246L28.338 267.566C89.6996 324.58 168.092 372.238 255.036 405.383C296.353 421.144 338.299 433.117 379.713 440.985C417.651 448.176 456.162 452.317 494.191 453.271C530.148 454.179 566.964 452.314 605.838 447.599C603.595 446.063 601.429 444.433 599.339 442.707C564.688 445.206 533.013 445.341 501.79 443.165C466.715 440.724 430.575 435.211 394.36 426.773C355.214 417.624 315.054 404.622 274.981 388.119C190.479 353.348 113.483 306.079 52.325 251.398L54.1752 249.759C114.962 304.109 191.526 351.124 275.588 385.702C315.453 402.115 355.402 415.058 394.347 424.161C430.373 432.564 466.324 438.042 501.22 440.471C531.701 442.594 562.635 442.5 596.375 440.156C594.338 438.321 592.377 436.403 590.517 434.402C561.046 434.768 534.755 433.393 508.62 430.203C476.712 426.324 443.135 419.452 408.835 409.772C372.222 399.406 334.082 385.448 295.489 368.275C213.864 332.018 138.779 285.445 78.3593 233.564L80.0225 231.975C140.141 283.586 214.879 329.947 296.15 366.043C334.573 383.131 372.539 397.036 408.979 407.347C443.105 416.974 476.505 423.812 508.235 427.669C533.799 430.785 559.521 432.161 588.261 431.858C586.431 429.725 584.688 427.509 583.047 425.212C562.16 423.986 539.504 421.652 515.417 417.195C486.648 411.894 455.649 403.655 423.278 392.724C389.243 381.18 353.136 366.266 315.951 348.394C237.036 310.535 163.864 264.648 104.346 215.703L105.847 214.166C165.133 262.913 238.029 308.628 316.664 346.357C353.717 364.16 389.688 379.025 423.574 390.518C455.782 401.408 486.621 409.595 515.226 414.863C538.721 419.203 560.875 421.525 581.334 422.769C579.71 420.338 578.201 417.806 576.806 415.205C559.759 412.721 541.648 409.283 522.187 404.193C496.59 397.518 468.165 387.932 437.719 375.686C406.358 363.028 372.272 347.158 336.425 328.514C283.046 300.824 203.956 255.676 130.344 197.844L131.683 196.37C205.083 254.039 283.956 299.064 337.203 326.685C372.954 345.264 406.943 361.09 438.192 373.713C468.504 385.9 496.791 395.447 522.264 402.085C541.225 407.048 558.917 410.432 575.593 412.889C574.194 410.109 572.924 407.231 571.78 404.274C558.104 400.787 544.155 396.605 528.996 391.187C506.675 383.234 480.839 372.293 452.211 358.655C423.749 345.038 391.697 328.213 356.948 308.661C304.637 279.284 227.369 233.123 156.38 180L157.556 178.588C228.403 231.61 305.526 277.689 357.766 307.016C392.454 326.538 424.447 343.324 452.836 356.911C481.367 370.494 507.104 381.402 529.326 389.321C544.065 394.591 557.638 398.683 570.962 402.103C569.796 398.913 568.807 395.662 567.978 392.368C557.969 388.367 547.444 383.764 535.807 378.17C516.797 369.07 494.203 357.109 466.704 341.624C441.898 327.585 412.705 310.31 377.458 288.807C298.675 240.868 234.873 199.436 182.392 162.142L183.404 160.794C235.826 198.049 299.569 239.442 378.291 287.342C413.515 308.831 442.685 326.082 467.454 340.105C494.879 355.56 517.426 367.484 536.376 376.555C547.6 381.95 557.793 386.425 567.479 390.322C566.638 386.713 565.995 383.076 565.561 379.424C558.473 375.2 550.978 370.526 542.597 365.119C525.817 354.334 505.92 341.074 482.885 325.711L464.722 313.533C444.611 300.035 421.813 284.734 397.969 268.943C375 253.767 351.259 238.272 326.125 221.864C286.898 196.264 246.339 169.781 208.403 144.284L209.263 143.021C247.186 168.516 287.734 194.988 326.948 220.586C352.082 236.994 375.823 252.489 398.803 267.676C422.66 283.469 445.458 298.77 465.567 312.278L483.718 324.455C506.74 339.816 526.624 353.075 543.393 363.848C551.369 368.993 558.552 373.48 565.325 377.538C564.919 373.564 564.746 369.589 564.812 365.656C562.805 363.888 560.752 362.083 558.641 360.229C555.695 357.628 552.621 354.926 549.371 352.087C532.766 337.624 514.691 322.647 495.661 307.568C470.9 287.853 444.92 268.181 418.449 249.116C370.414 214.595 310.201 174.473 234.36 126.451L235.079 125.274C310.955 173.322 371.204 213.47 419.286 248.028C445.793 267.118 471.795 286.815 496.592 306.555C515.657 321.66 533.755 336.66 550.395 351.149C553.657 354 556.718 356.7 559.676 359.303C561.438 360.861 563.155 362.371 564.849 363.857C564.997 359.693 565.421 355.585 566.119 351.565C563.079 347.589 559.853 343.452 556.226 339.023C544.184 324.423 528.264 307.647 510.193 290.532C488.887 270.254 464.926 249.635 438.984 229.265C389.261 190.302 325.823 147.438 260.373 108.582L260.965 107.495C326.498 146.403 390.019 189.319 439.827 228.335C465.827 248.755 489.833 269.421 511.186 289.737C529.327 306.913 545.303 323.749 557.401 338.419C560.706 342.44 563.657 346.205 566.443 349.845C567.209 345.792 568.184 341.817 569.307 337.904C567.474 334.083 565.465 330.124 563.144 325.978C554.328 310.282 541.05 292.137 524.748 273.509C506.488 252.542 483.938 230.385 459.532 209.416C411.638 168.37 348.523 125.108 286.373 90.7126L286.836 89.7236C349.095 124.174 412.328 167.526 460.327 208.658C484.804 229.679 507.421 251.907 525.738 272.944C542.119 291.656 555.461 309.904 564.341 325.702C566.379 329.34 568.177 332.831 569.822 336.209C570.97 332.393 572.253 328.637 573.621 324.923C572.645 321.065 571.503 317.092 570.096 312.969C564.28 296.033 553.632 276.506 539.317 256.487C523.598 234.422 503.126 211.273 480.08 189.566C434.361 146.567 373.22 104.019 312.362 72.8309L312.72 71.9542C373.711 103.212 434.994 145.862 480.817 188.959C503.931 210.737 524.484 233.959 540.257 256.105C554.649 276.228 565.36 295.868 571.213 312.913C572.415 316.422 573.412 319.822 574.29 323.132C575.618 319.633 577.017 316.175 578.464 312.754C578.209 308.611 577.786 304.363 577.096 299.987C574.168 281.776 566.153 260.847 553.909 239.479C540.663 216.264 522.239 192.141 500.641 169.719C457.513 125.039 398.358 83.208 338.352 54.9388L338.604 54.1849C398.757 82.5148 458.065 124.46 501.307 169.259C522.986 191.755 541.475 215.969 554.763 239.264C567.07 260.745 575.124 281.773 578.063 300.1C578.638 303.76 579.021 307.311 579.284 310.794C580.526 307.861 581.789 304.961 583.038 302.071C583.13 301.863 583.221 301.654 583.314 301.435C583.798 296.759 584.103 291.975 584.091 287.046C584.015 267.535 578.633 245.214 568.513 222.484C557.69 198.09 541.329 172.985 521.201 149.871C480.858 103.62 423.678 62.4934 364.317 37.0435L364.488 36.4155C423.996 61.9262 481.329 103.167 521.774 149.536C541.97 172.722 558.384 197.917 569.248 222.389C579.408 245.209 584.817 267.627 584.893 287.233C584.905 291.26 584.699 295.176 584.358 299.032C585.516 296.35 586.677 293.648 587.813 290.931C589.187 285.467 590.356 279.882 591.106 274.149C593.832 253.331 591.082 229.608 583.137 205.532C574.712 179.958 560.416 153.86 541.771 130.056C523.523 106.774 500.065 84.3536 473.912 65.2251C447.819 46.1356 418.892 30.2049 390.279 19.1689L390.381 18.6787C419.067 29.7451 448.053 45.7149 474.205 64.8538C500.417 84.0318 523.945 106.503 542.223 129.852C560.911 153.725 575.25 179.891 583.705 205.532C591.681 229.675 594.445 253.484 591.697 274.372C591.124 278.733 590.304 283 589.351 287.208C592.765 278.818 595.886 270.203 598.102 261.293C603.755 238.597 603.481 212.791 597.294 186.686C591.109 160.561 579.023 134.139 562.325 110.26C545.627 86.3697 523.444 63.7775 498.184 44.9315C472.913 26.0735 444.562 10.9822 416.217 1.28062L416.262 0.929938C444.67 10.65 473.067 25.7787 498.386 44.6639C523.705 63.549 545.923 86.1771 562.665 110.125C579.384 134.049 591.501 160.528 597.704 186.707C603.898 212.865 604.178 238.724 598.506 261.47C596.058 271.273 592.521 280.716 588.721 289.895C587.085 296.604 585.111 303.124 583.1 309.533C582.41 314.299 581.59 318.975 580.792 323.58C580.448 325.548 580.104 327.528 579.77 329.519C579.763 330.881 579.743 332.241 579.737 333.593C579.687 338.913 579.64 344.097 579.834 349.322C581.091 355.617 582.501 361.826 584.57 368.236C586.817 372.656 589.292 377.104 592.29 381.704C592.851 382.563 593.469 383.481 594.134 384.437C595.155 385.532 596.202 386.631 597.287 387.735C600.586 391.095 604.07 394.331 607.697 397.45C613.1 401.017 618.501 404.3 623.958 407.35C629.481 409.684 635.548 412.11 642.123 414.496C647.445 415.882 652.962 417.251 658.709 418.545C659.927 418.817 661.17 419.092 662.427 419.358C664.343 419.615 666.26 419.872 668.217 420.113C673.121 420.732 678.225 421.304 683.595 421.91C684.869 421.948 686.153 421.998 687.452 422.039C692.595 422.207 698.007 422.388 703.605 422.636C709.597 422.42 715.828 422.256 722.285 422.247C728.147 421.742 734.19 421.333 740.388 421.123C746.108 420.422 751.937 419.87 757.879 419.543C763.17 418.755 768.531 418.133 773.98 417.722C795.235 414.078 817.33 413.446 840.839 420.189C862.842 426.496 888.076 442.33 894.839 463.455C897.861 472.891 896.964 482.086 892.095 491.547C887.74 500.014 880.92 507.379 874.877 513.617C859.86 529.102 845.045 544.928 830.521 561.001C870.791 600.689 900.25 648.456 910.202 695.908C912.274 705.81 913.583 715.718 914.583 725.524C914.797 726.673 915.012 727.812 915.213 728.96C915.522 730.069 915.819 731.176 916.116 732.284C916.512 733.32 916.895 734.355 917.278 735.4C917.738 736.34 918.198 737.28 918.658 738.22C919.152 738.996 919.634 739.771 920.127 740.558C920.782 741.386 921.425 742.213 922.066 743.051C922.59 743.59 923.127 744.141 923.65 744.69C924.501 745.397 925.365 746.116 926.214 746.844C926.854 747.283 927.495 747.722 928.149 748.162C928.92 748.586 929.692 749.01 930.463 749.445C931.319 749.817 932.173 750.199 933.014 750.59C934.163 750.99 935.323 751.411 936.47 751.831C937.255 752.048 938.04 752.274 938.824 752.501C939.88 752.72 940.946 752.962 942.013 753.204C943.114 753.377 944.202 753.548 945.301 753.742C964.812 755.829 984.196 760.416 1002.82 770.735C1024.89 782.964 1042.58 803.292 1051.39 826.524C1060.18 849.744 1058.39 871.416 1046.46 885.978L1044.97 884.875C1044.58 885.537 1044.17 886.187 1043.74 886.824L1042.03 885.671C1041.71 886.343 1041.38 887.023 1041.01 887.668L1039.05 886.483C1038.81 887.165 1038.56 887.846 1038.29 888.503L1036.02 887.321C1035.87 887.993 1035.73 888.678 1035.55 889.325L1032.96 888.217C1032.92 888.872 1032.87 889.516 1032.8 890.135L1030.33 889.336C1033.15 866.192 1013.4 817.377 982.746 786.672C980.734 784.652 978.671 782.72 976.605 780.913C967.008 772.498 957.476 765.895 947.924 760.453C956.24 766.271 964.622 773.083 973.107 781.303C975.083 783.213 977.055 785.248 978.992 787.353C1007.74 818.683 1028.95 867.079 1030.02 890.932L1027.73 890.46C1026.69 867.029 1004.92 818.384 977.377 788.372C975.486 786.305 973.547 784.316 971.617 782.453C961.858 772.99 952.193 765.416 942.639 759.082C950.927 765.819 959.385 773.647 968.119 783.052C969.945 785.017 971.782 787.098 973.586 789.238C1000.95 821.827 1022.33 869.698 1027.23 891.727L1025.17 891.588C1020.32 869.776 999.142 822.36 972.033 790.066C970.264 787.962 968.461 785.916 966.669 783.988C956.813 773.369 947.292 764.775 937.975 757.498C945.997 765.207 954.243 774.077 963.145 784.783C964.812 786.779 966.502 788.904 968.182 791.102C992.801 823.275 1015.11 869.998 1024.42 892.529L1022.63 892.708C1013.36 870.266 991.15 823.765 966.687 791.78C965.03 789.606 963.351 787.503 961.705 785.541C951.831 773.662 942.774 764.059 933.932 755.804C933.869 755.796 933.817 755.8 933.753 755.791C941.426 764.609 949.309 774.596 958.121 786.507C959.64 788.547 961.195 790.718 962.74 792.961C977.433 814.161 992.417 841.343 1004.44 863.186C1011.16 875.371 1016.96 885.899 1021.56 893.358L1020.09 893.797C1015.46 886.293 1009.65 875.744 1002.92 863.535C990.907 841.736 975.957 814.6 961.316 793.491C959.768 791.268 958.238 789.111 956.728 787.093C947.676 774.848 939.6 764.647 931.74 755.68C931.599 755.672 931.446 755.663 931.305 755.655C938.098 765.282 944.983 775.813 952.964 788.056L953.082 788.239C954.484 790.39 955.894 792.585 957.284 794.829C964.585 806.534 972.329 819.922 979.818 832.878C994.142 857.658 1007.68 881.08 1018.7 894.248L1017.55 894.865C1006.42 881.557 992.849 858.079 978.482 833.231C971.003 820.296 963.27 806.921 955.979 795.238C954.588 793.004 953.191 790.811 951.786 788.681L951.668 788.498C943.534 776.035 936.541 765.344 929.635 755.587C929.378 755.575 929.134 755.565 928.878 755.553C931.487 760.166 934.094 764.894 936.785 769.779C940.324 776.2 943.976 782.844 948.044 789.972C949.298 792.167 950.572 794.417 951.841 796.698L956.245 804.624C974.197 836.937 996.53 877.162 1015.87 895.184L1015.01 895.892C995.471 877.666 973.063 837.326 955.06 804.902L950.655 796.986C949.385 794.705 948.124 792.467 946.869 790.272C942.79 783.132 939.138 776.487 935.6 770.057C932.848 765.048 930.176 760.218 927.503 755.502C927.168 755.491 926.836 755.469 926.514 755.459C927.344 757.338 928.173 759.226 929.014 761.127C933.272 770.796 937.655 780.795 943.021 791.686L946.411 798.559C971.073 848.593 993.503 881.428 1013.07 896.156L1012.46 896.875C992.694 881.995 970.108 848.972 945.343 798.736L941.952 791.863C936.576 780.95 932.182 770.939 927.925 761.26C927.066 759.304 926.207 757.349 925.345 755.414C924.946 755.404 924.536 755.383 924.136 755.374C924.193 755.538 924.249 755.703 924.305 755.867C928.3 767.788 932.423 780.112 937.962 793.374C938.932 795.679 939.922 798.019 940.935 800.382C948.334 817.562 975.209 875.293 1010.27 897.139L1009.87 897.822C974.488 875.777 947.47 817.755 940.03 800.496C939.017 798.133 938.013 795.792 937.046 793.476C931.485 780.18 927.352 767.833 923.358 755.903C923.292 755.716 923.238 755.531 923.172 755.344C922.709 755.327 922.233 755.318 921.77 755.3C924.83 768.065 928.109 781.235 932.905 795.052C933.754 797.488 934.62 799.896 935.472 802.207C948.43 837.118 974.146 880.65 1007.51 898.147L1007.25 898.743C973.611 881.096 947.731 837.332 934.704 802.255C933.852 799.944 932.975 797.524 932.126 795.088C927.321 781.239 924.043 768.058 920.972 755.282C920.445 755.266 919.917 755.251 919.39 755.236C921.494 768.706 923.858 782.566 927.824 796.716C928.524 799.207 929.255 801.66 929.985 804.018C936.055 823.397 945.937 842.952 957.823 859.073C971.566 877.719 987.795 891.588 1004.75 899.167L1004.62 899.642C987.523 891.994 971.177 878.036 957.345 859.274C945.415 843.095 935.503 823.473 929.404 804.017C928.661 801.657 927.932 799.194 927.232 796.703C923.268 782.532 920.89 768.681 918.786 755.211C918.194 755.197 917.602 755.184 917.023 755.173C918.376 771.776 920.141 788.788 924.525 805.812C929.526 825.274 939.12 844.865 951.521 860.99C965.637 879.348 983.12 892.906 1002.04 900.191L1001.97 900.539C982.939 893.208 965.374 879.586 951.191 861.146C938.757 844.976 929.132 825.328 924.113 805.801C919.73 788.767 917.964 771.765 916.611 755.162C911.343 755.062 906.082 755.015 900.857 754.983C893.917 754.93 886.745 754.879 879.761 754.674C838.154 753.428 785.912 739.199 764.059 702.977C753.458 685.396 744.019 656.463 784.338 608.444C784.352 608.435 784.367 608.416 784.368 608.406C785.168 607.303 785.955 606.209 786.751 605.137C787.47 604.16 788.201 603.195 788.919 602.228C789.001 602.092 789.096 601.957 789.177 601.831C790.5 599.768 791.821 597.726 793.141 595.694C794.31 593.527 795.476 591.391 796.626 589.274C797.556 587.16 798.491 585.005 799.44 582.842L799.821 581.685C800.392 579.955 800.948 578.244 801.504 576.523C801.959 574.39 802.399 572.276 802.838 570.162C803.028 568.079 803.203 566.015 803.376 563.962C803.301 561.939 803.213 559.904 803.115 557.857C802.747 555.797 802.366 553.735 801.973 551.672C801.316 549.648 800.658 547.634 799.975 545.617C799.009 543.585 798.016 541.57 797.007 539.574C795.736 537.608 794.439 535.648 793.136 533.73C791.392 531.629 789.617 529.566 787.826 527.522C785.838 525.611 783.831 523.748 781.81 521.895C779.361 519.955 776.893 518.055 774.396 516.193C745.045 496.926 712.991 482.03 680.225 473.47C675.153 472.147 669.941 470.911 664.891 469.717C650.506 466.318 635.771 462.831 621.975 456.655C532.763 472.013 448.087 473.37 365.407 460.892C226.101 439.871 93.0149 376.558 0.255769 287.171L2.50086 285.373ZM617.54 454.093C621.486 453.426 625.448 452.74 629.402 452.011C626.977 450.881 624.65 449.702 622.418 448.482C618.343 449.049 614.286 449.576 610.258 450.075C612.654 451.526 615.078 452.854 617.54 454.093ZM593.717 385.777C592.444 384.429 591.196 383.084 590 381.746C590.839 383.457 591.743 385.157 592.725 386.866C594.031 387.852 595.352 388.829 596.71 389.811C595.613 388.401 594.624 387.058 593.717 385.777ZM578.782 330.377C578.806 328.084 578.808 325.757 578.786 323.416C577.949 326.213 577.134 329.033 576.381 331.883C576.818 333.91 577.22 335.901 577.611 337.881C577.974 335.359 578.372 332.862 578.782 330.377ZM571.857 356.947C572.176 357.376 572.508 357.806 572.828 358.235C573.953 359.722 575.055 361.195 576.171 362.659C576.023 359.39 576.037 356.163 576.175 352.983C576.005 352.594 575.823 352.203 575.655 351.804C574.856 349.982 574.047 348.138 573.214 346.28C572.609 349.788 572.14 353.334 571.857 356.947ZM630.391 444.306C628.219 443.125 626.12 441.88 624.065 440.589C620.167 440.979 616.299 441.342 612.486 441.68C614.567 443.164 616.722 444.584 618.963 445.931C622.748 445.41 626.549 444.871 630.391 444.306ZM648.581 419.299C649.353 419.619 650.138 419.94 650.923 420.261C652.318 420.356 653.74 420.444 655.162 420.533C654.678 420.376 654.194 420.23 653.723 420.075C651.987 419.821 650.277 419.559 648.581 419.299ZM606.629 401.244C604.412 400.205 602.247 399.172 600.108 398.131C601.453 399.929 602.864 401.704 604.319 403.443C606.578 404.152 608.837 404.862 611.122 405.564C609.589 404.13 608.145 402.708 606.763 401.303C606.714 401.287 606.665 401.259 606.629 401.244ZM583.134 373.682C583.815 376.223 584.635 378.781 585.573 381.334C587.258 382.683 588.972 384.015 590.724 385.351C589.554 383.209 588.487 381.059 587.524 378.911C586.018 377.166 584.55 375.426 583.134 373.682ZM577.196 366.135C577.489 369.287 577.982 372.485 578.644 375.674C580.497 377.222 582.355 378.74 584.227 380.249C583.243 377.46 582.387 374.676 581.723 371.907C580.187 369.99 578.678 368.066 577.196 366.135ZM604.3 423.791C607.696 423.891 611.043 423.965 614.314 424.029C612.481 422.42 610.705 420.766 609.001 419.058C605.762 418.747 602.487 418.41 599.175 418.058C600.794 420.027 602.512 421.936 604.3 423.791ZM643.763 442.228C647.218 441.666 650.675 441.082 654.134 440.489C652.19 439.641 650.274 438.777 648.389 437.874C644.835 438.308 641.293 438.745 637.742 439.148C637.716 439.145 637.702 439.154 637.677 439.15C639.392 440.073 641.135 440.978 642.922 441.837C643.203 441.968 643.483 442.098 643.763 442.228ZM819.351 556.295C819.18 556.116 819.01 555.936 818.839 555.757C818.289 556.724 817.726 557.69 817.174 558.668C817.275 558.786 817.375 558.914 817.463 559.03C818.11 558.117 818.731 557.201 819.351 556.295ZM760.533 423.711C759.84 423.874 759.148 424.036 758.456 424.199C769.707 425.561 779.713 427.57 789.378 430.426C818.173 438.938 834.999 454.194 841.146 465.636C850.263 482.608 843.287 496.306 837.69 507.308C830.81 520.966 824.118 535.068 817.736 548.968C818.06 549.262 818.396 549.556 818.72 549.85C827.619 534.448 836.149 520.31 844.415 507.218C851.031 496.829 860.09 482.591 851.986 465.477C843.639 447.839 819.883 435.477 802.077 430.265C789.908 426.699 777.075 424.589 762.83 423.818C762.049 423.77 761.29 423.745 760.533 423.711ZM702.649 426.854L701.668 426.958C701.932 427.013 702.197 427.058 702.449 427.111C703.663 426.9 704.89 426.701 706.091 426.499C706.052 426.494 706.014 426.489 705.976 426.484C704.875 426.615 703.762 426.734 702.649 426.854ZM635.907 417.252C637.243 418.01 638.619 418.753 640.008 419.498C642.144 419.657 644.319 419.811 646.532 419.969C645.32 419.457 644.134 418.938 642.961 418.42C640.584 418.031 638.232 417.645 635.907 417.252ZM624.465 415.268C626.021 416.422 627.631 417.551 629.283 418.665C631.787 418.872 634.356 419.076 636.991 419.267C635.436 418.407 633.908 417.54 632.407 416.655C629.717 416.194 627.064 415.738 624.465 415.268ZM611.841 407.607C610.04 407.051 608.252 406.496 606.464 405.941C607.907 407.573 609.392 409.18 610.935 410.741C610.981 410.778 611.014 410.824 611.061 410.862C612.99 411.225 614.945 411.581 616.901 411.937C617.532 412.05 618.188 412.165 618.818 412.288C617.182 410.956 615.61 409.622 614.115 408.297C613.357 408.064 612.574 407.827 611.841 407.607ZM607.911 416.79C610.946 417.085 613.957 417.367 616.932 417.624C615.177 416.109 613.491 414.56 611.861 412.978C608.886 412.417 605.938 411.85 603.003 411.273C604.568 413.162 606.203 415.008 607.911 416.79ZM655.852 440.185C659.114 439.619 662.378 439.032 665.644 438.434C663.86 437.744 662.091 437.045 660.35 436.328C656.947 436.782 653.548 437.216 650.148 437.649C651.708 438.374 653.281 439.09 654.897 439.779C655.214 439.925 655.533 440.05 655.852 440.185ZM798.623 537.349C798.85 537.588 799.065 537.826 799.293 538.065C799.154 537.439 799.013 536.823 798.874 536.197C798.537 535.902 798.215 535.599 797.878 535.304C798.127 535.986 798.375 536.668 798.623 537.349ZM748.262 426.769C758.716 428.405 767.869 430.42 776.524 433C794.816 438.443 817.871 450.033 827.724 466.198C837.224 481.792 832.531 494.505 828.391 505.726C823.679 518.488 819.029 531.971 814.349 545.986C814.732 546.318 815.127 546.662 815.511 546.994C821.818 533.273 828.433 519.371 835.213 505.889C840.618 495.271 847.337 482.064 838.795 466.152C829.928 449.643 806.545 437.8 789.217 432.68C777.811 429.307 765.929 427.13 751.948 425.816C750.707 426.129 749.479 426.443 748.262 426.769ZM715.546 427.766C714.187 428 712.839 428.236 711.479 428.47L710.357 428.662C710.874 428.759 711.377 428.866 711.894 428.964C713.197 428.67 714.498 428.386 715.79 428.08L716.548 427.905C716.218 427.863 715.877 427.808 715.546 427.766ZM695.63 427.629C693.548 427.855 691.466 428.08 689.36 428.292C690.148 428.487 690.937 428.683 691.738 428.88C693.635 428.579 695.521 428.276 697.407 427.962C696.814 427.855 696.21 427.735 695.63 427.629ZM626.819 424.178C629.941 424.191 632.975 424.193 635.944 424.197C634.169 423.141 632.449 422.06 630.757 420.962C627.831 420.722 624.981 420.492 622.236 420.255C621.993 420.234 621.751 420.214 621.508 420.193C623.231 421.557 624.997 422.885 626.819 424.178ZM638.114 424.193C640.967 424.192 643.744 424.182 646.458 424.164C644.853 423.391 643.276 422.602 641.726 421.805C638.771 421.593 635.894 421.37 633.083 421.145C634.72 422.173 636.396 423.196 638.114 424.193ZM642.303 426.555C643.993 427.475 645.709 428.387 647.468 429.263C650.453 429.049 653.411 428.832 656.332 428.609C654.691 427.916 653.065 427.204 651.49 426.498C648.503 426.534 645.442 426.549 642.303 426.555ZM667.745 438.054C670.773 437.5 673.791 436.923 676.81 436.335C675.227 435.797 673.656 435.259 672.112 434.715C668.943 435.167 665.774 435.61 662.596 436.03C664.007 436.599 665.405 437.177 666.846 437.718C667.14 437.84 667.45 437.943 667.745 438.054ZM738.255 429.488C746.208 430.992 754.82 432.906 763.658 435.562C786.619 442.454 805.545 454.122 814.289 466.757C824.189 481.051 821.524 493.049 819.182 503.641L819.069 504.119C816.36 516.363 813.687 529.335 810.885 543.003C811.315 543.373 811.759 543.734 812.189 544.104C816.798 530.343 821.364 517.111 825.999 504.548C829.998 493.718 834.531 481.446 825.595 466.794C816.244 451.439 794.017 440.343 776.335 435.072C766.374 432.105 755.698 429.884 743.088 428.149C741.482 428.592 739.861 429.045 738.255 429.488ZM704.739 433.706C702.162 434.266 699.585 434.826 697.011 435.366C698.195 435.696 699.406 436.02 700.604 436.341C703.007 435.727 705.427 435.084 707.833 434.439C707.821 434.438 707.808 434.436 707.783 434.433L704.739 433.706ZM697.914 432.054C696.851 431.791 695.787 431.529 694.747 431.28C692.15 431.701 689.541 432.11 686.919 432.518C688.139 432.874 689.358 433.23 690.605 433.578C693.045 433.074 695.485 432.57 697.914 432.054ZM715.053 431.404C712.819 431.913 710.584 432.423 708.338 432.921C709.265 433.145 710.179 433.367 711.106 433.591C713.204 433.032 715.304 432.463 717.393 431.883C716.614 431.72 715.833 431.567 715.053 431.404ZM717.741 435.209C724.335 436.842 731.067 438.609 737.924 440.706C759.876 447.416 777.916 457.335 787.427 467.919C798.091 479.784 799.247 490.386 800.266 499.733L800.399 500.913C801.806 513.676 802.929 525.636 803.78 537.1C804.307 537.524 804.819 537.957 805.346 538.381C806.004 528.736 806.574 519.478 807.11 510.677L807.704 501.034C808.343 490.936 809.001 480.484 799.243 468.106C790.518 457.025 772.351 446.481 750.641 439.907C741.805 437.231 733.158 435.197 724.486 433.35C722.225 433.971 719.976 434.594 717.741 435.209ZM730.754 431.597L728.156 432.322C735.64 433.965 743.137 435.808 750.792 438.124C773.062 444.874 791.775 455.781 800.855 467.317C811.135 480.359 810.419 491.653 809.799 501.607L809.206 511.25C808.653 520.374 808.063 529.996 807.368 540.025C807.847 540.422 808.325 540.819 808.815 541.228C811.549 527.886 814.158 515.21 816.822 503.223L816.922 502.743C819.191 492.518 821.765 480.928 812.419 467.45C804.067 455.379 785.778 444.18 763.489 437.48C753.122 434.365 743.048 432.274 733.985 430.67C732.91 430.993 731.826 431.294 730.754 431.597ZM807.92 545.579C807.979 545.324 808.024 545.068 808.083 544.814C807.762 544.5 807.429 544.174 807.108 543.86C807.05 544.712 806.992 545.565 806.922 546.415C807.147 546.675 807.371 546.934 807.596 547.194C807.705 546.652 807.813 546.11 807.92 545.579ZM808.197 544.231C808.373 543.362 808.55 542.483 808.725 541.625C808.258 541.24 807.792 540.845 807.338 540.461C807.272 541.375 807.206 542.29 807.153 543.205C807.497 543.543 807.84 543.891 808.197 544.231ZM810.81 543.382C810.612 544.321 810.427 545.261 810.226 546.221C810.547 546.535 810.857 546.837 811.178 547.151C811.474 546.256 811.784 545.352 812.079 544.457C811.661 544.099 811.229 543.739 810.81 543.382ZM810.114 546.794C809.936 547.673 809.743 548.571 809.565 549.46C809.767 549.695 809.97 549.921 810.172 550.156C810.447 549.322 810.721 548.497 811.009 547.664C810.711 547.374 810.411 547.094 810.114 546.794ZM809.395 550.277C809.226 551.094 809.056 551.911 808.887 552.728C808.985 552.866 809.085 552.994 809.183 553.133C809.434 552.389 809.673 551.633 809.923 550.89C809.755 550.69 809.576 550.478 809.395 550.277ZM808.667 553.832C808.522 554.558 808.379 555.273 808.221 555.997L808.233 556.009C808.443 555.376 808.655 554.732 808.865 554.098C808.798 554.016 808.733 553.924 808.667 553.832ZM808.955 671.588C828.594 703.835 867.733 720.669 891.115 730.718C898.505 733.89 905.956 737.102 913.489 740.67C906.457 736.411 899.463 732.566 892.444 728.813L889.049 727.003C865.099 714.239 832.304 696.763 814.163 667.026C798.292 641.019 798.544 616.151 800.443 595.133C800.247 595.359 800.064 595.577 799.867 595.803C795.521 616.664 791.873 643.55 808.955 671.588ZM805.863 588.825C806.062 609.683 806.891 635.194 822.938 661.432C838.984 687.682 865.482 704.726 886.78 718.429C889.666 720.289 892.456 722.084 895.111 723.83C901.682 728.155 907.931 732.48 914.063 737.105C908.347 731.653 902.46 726.524 896.12 721.401C892.399 718.407 888.343 715.306 884.052 712.029C865.829 698.103 843.149 680.783 828.454 656.784C813.043 631.623 809.962 607.972 807.409 587.042C806.895 587.626 806.378 588.231 805.863 588.825ZM894.263 725.104C891.621 723.36 888.842 721.577 885.956 719.718C864.431 705.87 837.648 688.632 821.291 661.892C805.649 636.313 804.245 611.568 803.969 591.004C803.591 591.437 803.225 591.873 802.846 592.306C800.721 613.778 799.544 639.618 815.935 666.498C833.681 695.587 866.066 712.843 889.714 725.443L893.109 727.252C900.141 731.007 907.147 734.864 914.192 739.114C907.745 734.228 901.179 729.663 894.263 725.104ZM808.895 585.325C808.931 585.644 808.969 585.953 809.006 586.272C811.559 607.297 814.464 631.113 829.918 656.343C844.401 679.98 866.88 697.158 884.951 710.96C889.254 714.249 893.321 717.361 897.066 720.369C903.103 725.234 908.725 730.118 914.171 735.263C909.202 729.32 903.928 723.536 897.993 717.678C893.514 713.245 888.351 708.618 882.9 703.714C866.868 689.314 848.709 672.984 835.597 651.631C821.354 628.434 816.169 606.285 811.605 586.743C811.321 585.532 811.048 584.343 810.759 583.174C810.149 583.903 809.516 584.608 808.895 585.325ZM809.977 559.117C810.284 558.433 810.591 557.749 810.9 557.054C810.846 556.974 810.792 556.894 810.737 556.813C810.484 557.578 810.231 558.342 809.977 559.117ZM811.949 581.849C812.334 583.481 812.726 585.146 813.128 586.844C817.669 606.268 822.818 628.297 836.922 651.266C849.885 672.37 867.929 688.59 883.856 702.903C889.331 707.822 894.505 712.47 899.03 716.941C904.415 722.257 909.267 727.504 913.834 732.861C909.614 726.511 905.084 720.267 899.924 714.005C894.853 707.849 888.676 701.363 882.147 694.495C869.066 680.747 854.233 665.159 842.772 646.534C830.158 626.031 823.317 606.123 817.273 588.551C816.19 585.423 815.147 582.385 814.106 579.431C813.37 580.238 812.66 581.038 811.949 581.849ZM890.612 732.52C866.877 722.31 827.149 705.232 806.997 672.155C791.079 646.016 792.695 621.072 796.416 600.853C789.575 623.753 785.578 649.744 801.949 676.675C820.888 707.836 858.464 723.777 889.082 734.179L893.387 735.644C899.857 737.838 906.254 740.002 912.606 742.318C905.208 738.798 897.88 735.645 890.612 732.52ZM806.775 551.177C806.708 551.095 806.655 551.005 806.588 550.923C806.548 551.536 806.495 552.148 806.442 552.76C806.561 552.24 806.668 551.709 806.775 551.177ZM806.994 550.073C807.135 549.378 807.276 548.684 807.415 547.999C807.225 547.775 807.034 547.551 806.842 547.338C806.783 548.096 806.723 548.864 806.676 549.634C806.787 549.774 806.897 549.924 806.994 550.073ZM804.87 545.103C804.678 544.89 804.485 544.676 804.293 544.463C804.344 545.172 804.381 545.89 804.432 546.599C804.531 546.737 804.642 546.877 804.74 547.016C804.771 546.37 804.827 545.737 804.87 545.103ZM804.935 544.189C804.993 543.441 805.039 542.682 805.096 541.935C804.751 541.607 804.405 541.28 804.059 540.962C804.109 541.776 804.172 542.592 804.223 543.405C804.46 543.667 804.698 543.928 804.935 544.189ZM805.139 541.3C805.195 540.458 805.25 539.627 805.307 538.785C804.805 538.374 804.316 537.955 803.812 537.555C803.877 538.454 803.944 539.344 804.011 540.233C804.377 540.595 804.758 540.947 805.139 541.3ZM801.797 535.954C801.271 535.53 800.744 535.106 800.205 534.68C800.393 535.532 800.591 536.397 800.779 537.249C801.171 537.614 801.577 537.97 801.969 538.335C801.916 537.542 801.85 536.747 801.797 535.954ZM801.767 535.489C800.929 524.425 799.842 512.889 798.489 500.605L798.356 499.424C797.32 489.908 796.246 480.072 786.057 468.739C776.861 458.51 759.274 448.88 737.782 442.313C729.882 439.893 722.13 437.922 714.569 436.08C712.028 436.761 709.49 437.42 706.964 438.092C712.877 439.7 718.922 441.389 725.07 443.28C737.625 447.157 760.673 455.581 774.001 468.512C785.091 479.268 787.909 488.793 790.649 498.015L791.037 499.312C794.465 510.824 797.476 522.461 800.104 534.164C800.641 534.6 801.203 535.049 801.767 535.489ZM693.946 436.01C691.081 436.607 688.217 437.193 685.341 437.767C686.781 438.214 688.222 438.661 689.689 439.101C692.369 438.439 695.064 437.758 697.76 437.077C696.477 436.713 695.218 436.362 693.946 436.01ZM687.594 434.198C686.25 433.805 684.919 433.414 683.601 433.025C680.678 433.467 677.742 433.907 674.809 434.327C676.119 434.779 677.443 435.232 678.78 435.676C678.965 435.742 679.152 435.798 679.325 435.851C682.093 435.316 684.85 434.758 687.594 434.198ZM677.328 431.097C675.976 430.671 674.636 430.248 673.322 429.817C670.411 430.072 667.486 430.325 664.536 430.575C666.037 431.156 667.552 431.718 669.105 432.295C671.841 431.902 674.578 431.498 677.328 431.097ZM666.463 432.658C664.837 432.05 663.238 431.436 661.666 430.804C658.536 431.052 655.38 431.297 652.2 431.528C653.905 432.323 655.664 433.105 657.424 433.876C660.445 433.478 663.453 433.078 666.463 432.658ZM659.069 428.405C661.756 428.195 664.419 427.971 667.056 427.743C665.696 427.275 664.361 426.81 663.039 426.346C660.257 426.398 657.411 426.441 654.503 426.466C656.007 427.12 657.525 427.766 659.069 428.405ZM670.595 427.432C672.828 427.237 675.035 427.038 677.244 426.829C676.307 426.583 675.383 426.339 674.461 426.084C672.05 426.152 669.603 426.204 667.13 426.264C668.267 426.662 669.43 427.052 670.595 427.432ZM676.954 429.487C678.146 429.86 679.363 430.236 680.592 430.615C682.962 430.258 685.333 429.892 687.705 429.515C686.68 429.258 685.679 429.003 684.679 428.749C682.116 429.007 679.541 429.253 676.954 429.487ZM698.809 430.617C699.698 430.836 700.599 431.056 701.501 431.267C703.546 430.827 705.592 430.377 707.638 429.927C706.896 429.779 706.177 429.645 705.434 429.497C703.216 429.883 701.025 430.252 698.809 430.617ZM721.45 429.95L719.255 430.455C719.896 430.589 720.525 430.723 721.167 430.847C722.547 430.458 723.924 430.09 725.316 429.703L726.376 429.398C725.87 429.313 725.363 429.237 724.857 429.161C723.725 429.425 722.581 429.687 721.45 429.95ZM729.949 428.012C730.24 428.06 730.518 428.106 730.809 428.154C732.068 427.802 733.314 427.449 734.573 427.097C734.458 427.082 734.357 427.069 734.243 427.054C732.795 427.371 731.372 427.692 729.949 428.012ZM814.215 546.325C813.897 547.29 813.567 548.255 813.248 549.231C813.522 549.507 813.795 549.794 814.082 550.072C814.498 549.15 814.926 548.23 815.354 547.31C814.97 546.978 814.598 546.657 814.215 546.325ZM813.076 549.764C812.764 550.689 812.467 551.594 812.154 552.518C812.333 552.73 812.5 552.94 812.68 553.152C813.074 552.291 813.469 551.429 813.851 550.566C813.602 550.293 813.339 550.029 813.076 549.764ZM811.905 553.252C811.629 554.097 811.337 554.961 811.059 555.817C811.135 555.931 811.223 556.047 811.297 556.172C811.656 555.39 812.015 554.608 812.362 553.814C812.218 553.628 812.062 553.44 811.905 553.252ZM813.191 558.921C813.245 559.002 813.311 559.094 813.365 559.174C813.833 558.343 814.3 557.523 814.767 556.702C814.644 556.55 814.522 556.398 814.398 556.256C814.001 557.138 813.589 558.029 813.191 558.921ZM812.793 559.803C812.523 560.398 812.253 560.992 811.996 561.588C812.297 561.05 812.613 560.504 812.914 559.966C812.869 559.918 812.825 559.86 812.793 559.803ZM814.422 563.504C814.565 563.302 814.694 563.099 814.835 562.907C814.825 562.885 814.813 562.873 814.803 562.85C814.673 563.064 814.553 563.29 814.422 563.504ZM815.018 578.364C816.184 581.648 817.354 585.007 818.545 588.494C824.561 605.989 831.386 625.822 843.914 646.188C855.29 664.666 870.043 680.181 883.068 693.859C889.632 700.752 895.832 707.262 900.935 713.475C905.625 719.173 909.804 724.836 913.688 730.578C910.169 723.803 906.321 717.071 901.856 710.322C896.275 701.909 888.988 693.005 881.278 683.574C871.079 671.109 859.52 656.969 849.914 641.392C839.314 624.209 831.993 607.93 824.914 592.185C822.342 586.476 819.871 580.99 817.349 575.696C816.563 576.591 815.79 577.477 815.018 578.364ZM893.112 737.685L888.794 736.218C857.619 725.629 819.337 709.356 799.832 677.273C785.263 653.3 786.327 630.245 791.383 609.381C783.043 632.287 779.689 656.589 794.957 681.753C810.397 707.19 840.52 725.466 887.049 737.64C890.047 738.423 893.048 739.186 896.035 739.958C900.972 741.221 905.859 742.478 910.713 743.783C904.916 741.676 899.052 739.685 893.112 737.685ZM804.632 548.26C804.588 548.202 804.555 548.156 804.511 548.098C804.533 548.425 804.544 548.741 804.567 549.069C804.601 548.801 804.61 548.53 804.632 548.26ZM802.36 543.837C802.327 543.288 802.282 542.737 802.249 542.187C802.068 541.986 801.887 541.784 801.705 541.593C801.843 542.23 801.968 542.864 802.093 543.499C802.182 543.615 802.271 543.721 802.36 543.837ZM802.164 541.138C802.111 540.45 802.07 539.763 802.017 539.065C801.659 538.736 801.314 538.408 800.955 538.089C801.115 538.854 801.276 539.609 801.436 540.374C801.688 540.626 801.939 540.879 802.164 541.138ZM798.685 535.355C798.524 534.6 798.35 533.844 798.176 533.088C797.648 532.674 797.119 532.27 796.591 531.857C796.901 532.662 797.209 533.477 797.506 534.281C797.898 534.646 798.292 535 798.685 535.355ZM798.061 532.58C795.519 521.413 792.635 510.296 789.347 499.305L788.96 497.997C786.305 489.017 783.547 479.73 772.871 469.373C759.922 456.805 737.267 448.537 724.924 444.718C717.87 442.544 710.922 440.645 704.173 438.813C701.382 439.534 698.607 440.226 695.832 440.929C696.565 441.149 697.287 441.357 698.034 441.578C702.649 442.937 707.413 444.345 712.204 445.842C727.213 450.517 747.781 458.349 760.574 469.114C772.19 478.889 776.704 487.878 781.059 496.584L781.635 497.727C786.973 508.342 791.903 519.606 796.369 531.273C796.921 531.7 797.485 532.139 798.061 532.58ZM780.236 497.967L779.66 496.823C775.385 488.295 770.966 479.476 759.675 469.984C747.16 459.465 726.873 451.752 712.064 447.134C707.284 445.65 702.533 444.243 697.93 442.886C696.4 442.438 694.895 441.993 693.402 441.549C690.389 442.295 687.39 443.021 684.393 443.737C687.11 444.599 689.865 445.467 692.672 446.331C694.882 447.013 697.104 447.708 699.337 448.414C721.202 455.301 736.845 462.27 747.157 469.739C759.538 478.69 765.79 487.304 771.846 495.641L772.229 496.173C779.447 506.117 786.266 516.953 792.556 528.392C793.122 528.811 793.687 529.24 794.251 529.669C789.974 518.645 785.285 508.009 780.236 497.967ZM687.239 439.678C685.724 439.211 684.234 438.747 682.732 438.281C679.618 438.898 676.494 439.503 673.372 440.087C675.04 440.669 676.723 441.231 678.42 441.795C681.361 441.114 684.293 440.4 687.239 439.678ZM671.239 440.506C667.892 441.134 664.535 441.741 661.179 442.337C663.048 443.06 664.919 443.772 666.808 444.445C669.984 443.741 673.163 443.017 676.357 442.274C674.637 441.697 672.93 441.111 671.239 440.506ZM655.322 434.162C653.513 433.363 651.747 432.539 650.009 431.697C646.66 431.938 643.26 432.172 639.836 432.393C641.679 433.426 643.565 434.423 645.493 435.395C648.772 434.998 652.04 434.579 655.322 434.162ZM645.396 429.416C643.592 428.482 641.803 427.539 640.068 426.572C636.903 426.585 633.638 426.574 630.281 426.573C632.077 427.768 633.916 428.927 635.798 430.06C639.027 429.846 642.231 429.628 645.396 429.416ZM628.605 426.557C628.204 426.558 627.818 426.55 627.418 426.551C624.489 426.531 621.486 426.491 618.445 426.447C620.27 427.918 622.141 429.333 624.081 430.714C626.577 430.584 629.098 430.457 631.648 430.303C632.494 430.254 633.328 430.193 634.173 430.145C632.269 428.988 630.409 427.785 628.605 426.557ZM625.193 424.168C623.351 422.831 621.565 421.459 619.822 420.05C616.668 419.781 613.489 419.498 610.275 419.19C611.971 420.866 613.739 422.477 615.564 424.053C618.823 424.105 622.034 424.14 625.193 424.168ZM609.423 410.546C607.792 408.869 606.206 407.145 604.69 405.378C601.998 404.529 599.332 403.672 596.657 402.784C598.067 404.873 599.546 406.929 601.109 408.933C603.866 409.487 606.637 410.021 609.423 410.546ZM617.044 413.937C615.871 413.723 614.71 413.511 613.551 413.289C615.162 414.817 616.829 416.31 618.553 417.769C619.638 417.866 620.723 417.964 621.796 418.049C623.533 418.199 625.309 418.343 627.123 418.493C625.405 417.297 623.74 416.087 622.117 414.851C620.413 414.548 618.723 414.237 617.044 413.937ZM644.938 422.029C646.37 422.737 647.828 423.449 649.315 424.132C651.849 424.112 654.331 424.085 656.763 424.051C655.445 423.557 654.141 423.054 652.875 422.556C650.185 422.388 647.535 422.216 644.938 422.029ZM660.681 423.999C662.622 423.965 664.551 423.93 666.453 423.891C665.669 423.665 664.883 423.449 664.112 423.224C661.906 423.108 659.727 422.985 657.575 422.856C658.597 423.239 659.633 423.613 660.681 423.999ZM671.945 423.758C672.671 423.736 673.382 423.723 674.108 423.701C673.158 423.662 672.221 423.615 671.283 423.579C671.495 423.637 671.72 423.698 671.945 423.758ZM680.071 425.924C680.671 426.085 681.296 426.239 681.895 426.399C683.477 426.246 685.047 426.091 686.617 425.926C686.277 425.861 685.936 425.797 685.596 425.732C683.767 425.801 681.925 425.869 680.071 425.924ZM721.815 426.705C721.869 426.691 721.922 426.677 721.976 426.663C721.91 426.675 721.843 426.688 721.777 426.7C721.79 426.702 721.803 426.704 721.815 426.705ZM817.578 549.294C817.128 550.285 816.665 551.274 816.216 552.254C816.444 552.493 816.685 552.723 816.913 552.962C817.459 552.026 817.994 551.077 818.527 550.15C818.214 549.869 817.903 549.577 817.578 549.294ZM815.999 552.74C815.567 553.691 815.136 554.632 814.704 555.583C814.838 555.746 814.985 555.912 815.117 556.086C815.631 555.198 816.133 554.309 816.647 553.421C816.431 553.194 816.215 552.967 815.999 552.74ZM816.824 559.283C816.306 560.202 815.776 561.109 815.256 562.038C815.289 562.085 815.31 562.119 815.343 562.165C815.918 561.306 816.505 560.458 817.079 559.61C817.003 559.495 816.914 559.389 816.824 559.283ZM818.088 574.868C820.724 580.376 823.308 586.097 825.989 592.061C833.046 607.772 840.347 624.006 850.906 641.11C860.457 656.607 871.983 670.701 882.161 683.132C889.905 692.599 897.215 701.527 902.826 710.006C906.85 716.069 910.361 722.109 913.584 728.174C910.758 721.027 907.606 713.902 903.821 706.684C897.67 694.969 888.857 682.566 879.532 669.427C872.044 658.871 864.291 647.968 857.065 636.282C849.304 623.731 842.658 611.544 836.243 599.774C830.956 590.078 825.898 580.81 820.607 572.047C819.763 572.987 818.919 573.927 818.088 574.868ZM896.001 742.229C893 741.466 890.001 740.693 886.99 739.907C839.474 727.481 808.632 708.672 792.68 682.393C779.096 659.994 779.737 638.426 785.61 617.939C776.884 639.129 773.318 662.659 787.967 686.82C808.132 720.099 851.883 734.705 885.031 741.092C889.251 741.907 893.477 742.68 897.691 743.442C901.211 744.083 904.744 744.725 908.272 745.399C904.226 744.334 900.126 743.283 896.001 742.229ZM799.812 540.553C799.724 540.133 799.649 539.714 799.559 539.305C799.434 539.173 799.309 539.042 799.184 538.91C799.376 539.428 799.553 539.954 799.745 540.471C799.768 540.495 799.789 540.529 799.812 540.553ZM796.218 534.86C796.028 534.332 795.823 533.813 795.632 533.296C795.365 533.062 795.097 532.839 794.83 532.605C795.14 533.201 795.463 533.809 795.773 534.404C795.923 534.549 796.07 534.705 796.218 534.86ZM795.266 532.326C795.006 531.632 794.745 530.949 794.486 530.255C793.968 529.863 793.462 529.484 792.943 529.102C793.361 529.869 793.78 530.625 794.185 531.39C794.546 531.699 794.906 532.007 795.266 532.326ZM790.669 527.405C790.209 527.063 789.747 526.742 789.288 526.4C789.781 527.082 790.274 527.764 790.766 528.456C791.057 528.703 791.348 528.95 791.639 529.197C791.316 528.6 790.994 527.992 790.669 527.405ZM790.27 526.694C784.319 516.032 777.909 505.929 771.14 496.609L770.757 496.078C764.789 487.857 758.625 479.359 746.493 470.587C736.346 463.244 720.885 456.361 699.218 449.541C696.985 448.835 694.762 448.151 692.553 447.458C689.052 446.369 685.651 445.303 682.291 444.221C679.055 444.99 675.836 445.73 672.605 446.458C677.232 448.027 681.884 449.506 686.46 450.964C703.429 456.363 720.903 462.445 733.741 470.353C747.357 478.729 755.568 487.175 762.821 494.639C771.887 503.961 780.545 514.352 788.653 525.511C789.195 525.916 789.739 526.3 790.27 526.694ZM762.026 495.197C754.842 487.805 746.699 479.431 733.261 471.172C720.578 463.368 703.215 457.321 686.346 451.956C681.211 450.321 676.002 448.656 670.808 446.877C667.377 447.653 663.951 448.397 660.538 449.133C664.931 450.714 669.313 452.179 673.591 453.557L676.69 454.553C691.979 459.463 707.776 464.533 720.356 471.024C734.596 478.369 744.512 486.006 753.452 493.194C764.299 501.927 774.786 511.85 784.69 522.695C785.15 523.027 785.625 523.35 786.086 523.682C778.498 513.407 770.43 503.847 762.026 495.197ZM665.08 444.831C663.157 444.122 661.248 443.405 659.357 442.649C655.804 443.272 652.266 443.876 648.717 444.469C650.773 445.352 652.832 446.203 654.91 447.015C658.293 446.307 661.679 445.578 665.08 444.831ZM636.578 436.451C638.989 436.174 641.402 435.886 643.814 435.598C641.877 434.595 639.97 433.563 638.117 432.507C636.269 432.626 634.445 432.749 632.573 432.854C630.882 432.951 629.219 433.031 627.553 433.132C629.47 434.395 631.43 435.622 633.447 436.804C634.496 436.676 635.53 436.568 636.578 436.451ZM626.254 433.195C622.575 433.394 618.925 433.564 615.355 433.714C617.292 435.221 619.276 436.66 621.343 438.058C624.912 437.71 628.524 437.335 632.165 436.932C630.138 435.728 628.181 434.481 626.254 433.195ZM622.819 430.794C620.881 429.391 618.99 427.932 617.168 426.44C613.753 426.389 610.263 426.318 606.725 426.22C608.516 427.96 610.379 429.636 612.314 431.258C615.765 431.125 619.258 430.976 622.819 430.794ZM606.686 416.674C604.971 414.85 603.329 412.961 601.757 411.029C598.698 410.416 595.666 409.796 592.651 409.147C594.106 411.389 595.646 413.568 597.286 415.676C600.441 416.04 603.575 416.369 606.686 416.674ZM599.889 408.682C598.295 406.622 596.784 404.509 595.357 402.354C592.596 401.433 589.851 400.494 587.082 399.53C588.338 402.019 589.714 404.471 591.187 406.872C594.077 407.495 596.969 408.097 599.889 408.682ZM593.872 400.046C592.415 397.72 591.066 395.355 589.81 392.971C587.376 391.715 584.959 390.429 582.534 389.111C583.559 391.885 584.717 394.623 586.01 397.327C588.627 398.261 591.248 399.163 593.872 400.046ZM588.616 390.605C587.347 388.021 586.185 385.407 585.178 382.793C583.139 381.179 581.128 379.547 579.145 377.898C579.855 380.914 580.732 383.941 581.767 386.937C584.047 388.184 586.33 389.41 588.616 390.605ZM586.562 383.883C587.561 386.36 588.689 388.832 589.923 391.287C592.065 392.401 594.21 393.494 596.37 394.569C594.979 392.534 593.669 390.468 592.451 388.393C590.435 386.897 588.486 385.388 586.562 383.883ZM591.155 393.658C592.383 395.954 593.719 398.223 595.136 400.46C597.624 401.293 600.102 402.104 602.595 402.896C601.065 401.033 599.618 399.138 598.226 397.208C595.845 396.043 593.492 394.86 591.155 393.658ZM613.532 406.304C615.37 406.865 617.26 407.433 619.199 408.018C617.969 407.136 616.752 406.256 615.565 405.349C613.502 404.423 611.538 403.532 609.687 402.665C610.901 403.869 612.178 405.082 613.532 406.304ZM616.675 409.067C617.932 410.14 619.214 411.217 620.548 412.29C620.711 412.427 620.901 412.556 621.066 412.682C623.337 413.089 625.622 413.498 627.945 413.901C626.524 413.006 625.131 412.093 623.74 411.159C621.325 410.461 618.962 409.759 616.675 409.067ZM630.136 413.837C630.483 414.049 630.831 414.251 631.166 414.462C632.896 414.757 634.653 415.056 636.422 415.357C635.473 414.9 634.538 414.444 633.591 413.976C631.621 413.43 629.689 412.888 627.797 412.341C628.571 412.849 629.345 413.358 630.136 413.837ZM641.439 416.201C641.793 416.257 642.147 416.313 642.489 416.367C641.965 416.226 641.427 416.094 640.902 415.954C641.086 416.03 641.256 416.114 641.439 416.201ZM770.269 421.89C781.623 422.95 792.152 424.911 802.244 427.864C820.845 433.315 845.705 446.333 854.567 465.085C863.218 483.37 853.834 498.122 846.977 508.889C838.617 522.106 830.016 536.392 821.018 551.959C821.284 552.203 821.548 552.457 821.814 552.7C832.518 537.217 843.063 522.572 853.603 508.566C863.715 495.177 872.206 481.747 865.149 464.82C860.265 453.089 844.182 436.376 814.898 427.854C802.302 424.192 789.201 422.257 774.847 421.933C773.328 421.895 771.793 421.887 770.269 421.89ZM820.863 552.264C820.282 553.269 819.7 554.285 819.117 555.3C819.299 555.491 819.481 555.682 819.651 555.872C820.317 554.909 820.971 553.934 821.636 552.982C821.37 552.738 821.117 552.496 820.863 552.264ZM819.61 561.717C819.677 561.799 819.742 561.891 819.797 561.972C820.537 561.029 821.29 560.098 822.029 559.166C821.905 559.024 821.769 558.881 821.645 558.739C820.964 559.721 820.281 560.713 819.61 561.717ZM819.213 562.295C818.576 563.23 817.926 564.174 817.288 565.12C817.286 565.13 817.299 565.132 817.298 565.142C817.991 564.267 818.686 563.381 819.365 562.514C819.324 562.435 819.268 562.365 819.213 562.295ZM820.542 566.618C820.89 566.222 821.237 565.837 821.597 565.443C821.574 565.419 821.553 565.385 821.53 565.361C821.205 565.78 820.88 566.2 820.542 566.618ZM821.182 571.387C826.584 580.29 831.727 589.705 837.096 599.569C843.511 611.339 850.146 623.504 857.885 636.031C865.09 647.682 872.831 658.574 880.308 669.117C889.654 682.291 898.488 694.729 904.684 706.502C908.035 712.877 910.881 719.166 913.442 725.461C911.298 718.025 908.856 710.603 905.786 703.047C898.685 685.559 886.99 667.156 874.618 647.68C871.203 642.303 867.669 636.753 864.204 631.16C861.381 626.604 858.616 622.097 855.884 617.636C845.189 600.189 835.005 583.584 823.836 568.414C822.96 569.403 822.072 570.39 821.182 571.387ZM897.885 745.952C893.647 745.176 889.421 744.403 885.188 743.586C851.259 737.047 806.428 722.009 785.527 687.524C772.467 665.968 773.318 645.077 779.48 625.853C770.279 646.122 766.821 668.513 780.974 691.909C803.39 728.968 854.518 740.821 883.008 744.575C888.238 745.268 893.581 745.891 898.757 746.504C900.766 746.741 902.776 746.978 904.798 747.217C902.504 746.786 900.195 746.364 897.885 745.952ZM792.875 531.442C792.686 531.103 792.509 530.766 792.321 530.427C792.181 530.305 792.03 530.18 791.89 530.058C792.196 530.495 792.5 530.943 792.805 531.381C792.828 531.405 792.852 531.418 792.875 531.442ZM787.757 525.951C787.416 525.488 787.09 525.016 786.749 524.553C786.406 524.31 786.063 524.067 785.732 523.825C786.263 524.417 786.808 525.001 787.337 525.604C787.477 525.716 787.617 525.839 787.757 525.951ZM781.588 520.504C772.452 510.722 762.827 501.727 752.903 493.753C744.022 486.604 734.163 479.026 720.045 471.739C707.574 465.304 691.827 460.24 676.587 455.357L673.487 454.361C668.763 452.842 663.898 451.221 659.039 449.444C655.403 450.214 651.769 450.963 648.15 451.693C651.964 453.158 656.115 454.614 660.712 456.117C665.137 457.556 669.693 458.969 674.089 460.331C685.325 463.819 696.935 467.418 706.962 471.673C719.339 476.933 730.796 483.123 744.085 491.739C756.699 499.881 768.985 509.365 780.695 519.917C781.006 520.114 781.291 520.308 781.588 520.504ZM782.594 521.618C782.675 521.692 782.756 521.765 782.837 521.838C782.792 521.791 782.746 521.743 782.713 521.697C782.665 521.67 782.63 521.644 782.594 521.618ZM653.49 447.315C651.402 446.481 649.331 445.617 647.265 444.712C645.801 444.954 644.35 445.197 642.886 445.439C640.592 445.805 638.327 446.154 636.049 446.5C638.176 447.529 640.385 448.525 642.712 449.506C646.302 448.793 649.894 448.069 653.49 447.315ZM641.521 442.59C641.812 442.544 642.089 442.495 642.379 442.449C640.301 441.438 638.267 440.39 636.277 439.296C632.505 439.713 628.788 440.105 625.086 440.479C626.988 441.656 628.934 442.787 630.938 443.873C631.106 443.968 631.276 444.053 631.446 444.137C634.787 443.654 638.147 443.132 641.521 442.59ZM620.35 438.151C618.284 436.743 616.292 435.271 614.356 433.753C610.541 433.903 606.806 434.031 603.113 434.133C605.031 435.889 607.036 437.573 609.114 439.182C612.821 438.872 616.572 438.515 620.35 438.151ZM611.354 431.292C609.422 429.649 607.549 427.951 605.748 426.189C602.235 426.094 598.675 425.972 595.041 425.82C596.77 427.835 598.588 429.767 600.491 431.636C604.052 431.549 607.669 431.437 611.354 431.292ZM603.361 423.764C601.575 421.889 599.876 419.941 598.234 417.947C594.924 417.585 591.579 417.187 588.174 416.76C589.701 419.042 591.302 421.251 593.005 423.378C596.522 423.536 599.966 423.664 603.361 423.764ZM596.356 415.578C594.708 413.437 593.159 411.225 591.695 408.95C588.592 408.279 585.492 407.587 582.382 406.873C583.702 409.465 585.133 411.987 586.653 414.426C589.932 414.836 593.162 415.22 596.356 415.578ZM590.271 406.671C588.79 404.226 587.406 401.731 586.131 399.198C583.34 398.21 580.527 397.189 577.681 396.131C578.744 399.014 579.954 401.854 581.287 404.646C584.282 405.346 587.268 406.023 590.271 406.671ZM585.058 396.995C583.761 394.228 582.586 391.414 581.556 388.577C579.107 387.245 576.649 385.87 574.147 384.448C574.909 387.66 575.828 390.86 576.908 394.008C579.654 395.042 582.366 396.041 585.058 396.995ZM580.814 386.416C579.765 383.324 578.888 380.203 578.177 377.092C576.136 375.393 574.11 373.676 572.063 371.924C572.402 375.417 572.958 378.927 573.71 382.421C576.102 383.798 578.462 385.128 580.814 386.416ZM577.711 374.893C577.041 371.567 576.588 368.259 576.324 364.985C574.799 362.986 573.277 360.966 571.744 358.935C571.563 362.549 571.607 366.225 571.893 369.931C573.833 371.617 575.776 373.271 577.711 374.893ZM576.311 350.316C576.505 347.3 576.797 344.318 577.164 341.367C576.714 339.034 576.254 336.689 575.761 334.298C574.942 337.559 574.196 340.849 573.574 344.187C574.508 346.258 575.422 348.294 576.311 350.316ZM577.041 351.972C577.821 353.739 578.592 355.474 579.362 357.219C579.147 354.874 578.981 352.546 578.89 350.238C578.48 348.204 578.073 346.149 577.681 344.075C577.398 346.681 577.177 349.305 577.041 351.972ZM576.932 354.726C576.854 357.547 576.836 360.396 576.98 363.298C576.986 363.456 577.002 363.626 577.021 363.785C578.369 365.552 579.717 367.319 581.093 369.068C580.541 366.334 580.108 363.668 579.775 361.036C578.818 358.942 577.874 356.839 576.932 354.726ZM582.114 369.462C582.202 369.882 582.304 370.293 582.392 370.714C583.526 372.138 584.673 373.565 585.859 374.986C585.109 373.086 584.445 371.219 583.818 369.366C582.888 367.559 581.996 365.756 581.131 363.947C581.414 365.765 581.734 367.599 582.114 369.462ZM588.077 377.619C588.448 378.044 588.818 378.48 589.19 378.905C588.518 377.802 587.871 376.712 587.248 375.626C587.513 376.278 587.788 376.953 588.077 377.619ZM594.561 389.954C595.705 391.81 596.914 393.653 598.19 395.474C600.036 396.382 601.895 397.292 603.793 398.196C602.423 396.699 601.138 395.244 599.952 393.823C598.104 392.527 596.307 391.237 594.561 389.954ZM606.531 399.491C606.726 399.579 606.92 399.678 607.116 399.766C608.176 400.258 609.284 400.778 610.417 401.301C609.506 400.555 608.593 399.819 607.696 399.064C606.338 398.177 604.983 397.269 603.629 396.351C604.556 397.382 605.519 398.428 606.531 399.491ZM620.796 407.646C621.506 408.146 622.219 408.626 622.931 409.116C623.926 409.411 624.948 409.7 625.968 409.998C625.522 409.752 625.074 409.517 624.628 409.271C623.328 408.737 622.044 408.184 620.796 407.646ZM815.111 425.292C845.814 434.227 862.792 452.009 868.001 464.526C876.173 484.133 864.208 499.979 856.291 510.453C845.673 524.564 835.05 539.314 824.264 554.934C824.483 555.14 824.702 555.347 824.908 555.551C837.52 539.788 850.183 524.535 862.829 509.909C874.306 496.653 884.968 482.201 878.367 464.138C871.566 445.524 848.064 431.287 827.784 425.431C815.049 421.751 801.925 419.991 787.717 420.043C797.236 421.014 806.287 422.722 815.111 425.292ZM824.059 555.222C823.347 556.242 822.647 557.274 821.933 558.304C822.068 558.458 822.204 558.611 822.34 558.755C823.124 557.776 823.897 556.785 824.68 555.816C824.473 555.621 824.265 555.427 824.059 555.222ZM824.703 561.365C824.793 561.471 824.884 561.566 824.974 561.672C825.876 560.677 826.767 559.67 827.657 558.672C827.508 558.527 827.346 558.381 827.198 558.226C826.368 559.262 825.535 560.318 824.703 561.365ZM824.393 561.765C823.578 562.783 822.776 563.801 821.96 564.829C821.994 564.865 822.014 564.909 822.048 564.945C822.909 563.976 823.768 563.017 824.641 562.049C824.55 561.953 824.473 561.849 824.393 561.765ZM824.303 567.898C835.563 583.163 845.811 599.871 856.569 617.43C859.301 621.891 862.066 626.398 864.89 630.944C868.355 636.537 871.89 642.087 875.292 647.462C887.697 666.974 899.402 685.41 906.531 702.975C909.278 709.734 911.523 716.376 913.496 723.025C911.972 715.197 910.143 707.319 907.772 699.444C900.122 674.074 885.061 648.099 871.357 626.03C855.971 601.281 841.753 581.61 827.076 564.805C826.143 565.838 825.222 566.873 824.303 567.898ZM900.331 749.327C899.95 749.278 899.567 749.24 899.199 749.192C894.009 748.589 888.655 747.953 883.398 747.267C854.186 743.409 801.699 731.183 778.387 692.646C769.027 677.174 766.343 661.081 770.172 643.435C770.83 640.427 771.647 637.481 772.612 634.596C763.802 653.521 760.666 674.915 773.995 696.988C780.352 707.503 806.834 742.264 880.998 748.06C887.121 748.542 893.413 748.91 899.499 749.273C899.779 749.298 900.049 749.312 900.331 749.327ZM776.598 517.137C766.021 507.914 755.011 499.549 743.745 492.272C730.518 483.684 719.121 477.523 706.804 472.303C696.826 468.064 685.24 464.479 674.03 460.994C669.621 459.631 665.065 458.217 660.642 456.768C655.611 455.126 651.103 453.53 646.985 451.921C643.155 452.687 639.329 453.422 635.506 454.137C639.321 455.696 643.402 457.196 647.848 458.669C655.218 461.094 662.856 463.249 670.233 465.319C678.408 467.617 686.133 469.794 693.617 472.339C707.336 477.005 720.795 482.886 734.765 490.322C749.076 497.916 763.088 506.93 776.539 517.098C776.563 517.111 776.587 517.125 776.598 517.137ZM641.587 449.718C639.275 448.718 637.068 447.711 634.943 446.662C631.032 447.261 627.137 447.83 623.272 448.371C625.505 449.581 627.835 450.74 630.273 451.86C634.029 451.169 637.799 450.458 641.587 449.718ZM606.36 447.551C610.283 447.069 614.233 446.57 618.189 446.03C615.974 444.676 613.834 443.248 611.754 441.744C607.746 442.089 603.781 442.407 599.858 442.69C601.949 444.405 604.116 446.026 606.36 447.551ZM596.857 440.123C600.688 439.85 604.533 439.568 608.435 439.241C606.371 437.624 604.381 435.921 602.465 434.155C598.591 434.265 594.758 434.349 590.996 434.39C592.856 436.391 594.819 438.299 596.857 440.123ZM588.725 431.865C592.385 431.822 596.099 431.754 599.855 431.66C597.966 429.781 596.152 427.819 594.424 425.793C590.842 425.637 587.198 425.462 583.507 425.25C585.148 427.548 586.893 429.743 588.725 431.865ZM581.832 422.812C585.419 423.032 588.935 423.201 592.414 423.354C590.689 421.203 589.077 418.973 587.552 416.68C584.184 416.258 580.759 415.786 577.312 415.281C578.695 417.88 580.206 420.391 581.832 422.812ZM576.06 412.97C579.418 413.465 582.729 413.921 586.006 414.342C584.451 411.868 583.022 409.325 581.693 406.711C578.547 405.972 575.404 405.211 572.241 404.407C573.4 407.344 574.66 410.201 576.06 412.97ZM571.411 402.224C574.486 403.007 577.552 403.768 580.61 404.486C579.269 401.661 578.062 398.79 576.991 395.874C574.171 394.81 571.317 393.709 568.418 392.561C569.264 395.825 570.257 399.046 571.411 402.224ZM567.931 390.517C570.731 391.642 573.51 392.722 576.243 393.755C575.157 390.554 574.231 387.31 573.474 384.057C571.02 382.652 568.534 381.2 566.003 379.701C566.454 383.323 567.1 386.94 567.931 390.517ZM565.797 377.787C568.255 379.256 570.656 380.665 573.024 382.029C572.28 378.473 571.745 374.903 571.413 371.358C569.39 369.62 567.346 367.837 565.27 366.008C565.208 369.911 565.385 373.855 565.797 377.787ZM565.297 364.187C567.317 365.957 569.278 367.676 571.23 369.364C570.966 365.587 570.944 361.841 571.159 358.157C569.637 356.137 568.105 354.095 566.513 352.014C565.846 355.996 565.439 360.075 565.297 364.187ZM566.812 350.291C568.348 352.302 569.839 354.265 571.294 356.203C571.603 352.49 572.098 348.842 572.728 345.242C571.734 343.028 570.694 340.777 569.606 338.488C568.514 342.363 567.558 346.287 566.812 350.291ZM570.11 336.781C571.161 338.95 572.165 341.081 573.121 343.186C573.788 339.707 574.59 336.276 575.464 332.887C574.967 330.527 574.423 328.129 573.819 325.693C572.475 329.326 571.225 333.024 570.11 336.781ZM574.492 323.871C575.08 326.127 575.609 328.345 576.091 330.524C576.932 327.393 577.845 324.302 578.782 321.235C578.748 318.788 578.655 316.291 578.513 313.777C577.129 317.112 575.768 320.47 574.492 323.871ZM579.353 311.767C579.509 313.968 579.617 316.142 579.677 318.288C580.251 316.433 580.836 314.59 581.408 312.755C581.651 311.968 581.908 311.173 582.151 310.386C582.516 307.949 582.834 305.473 583.115 302.983C581.863 305.894 580.608 308.825 579.353 311.767ZM584.226 300.462C584.057 302.181 583.878 303.877 583.661 305.569C584.839 301.726 585.998 297.828 587.061 293.875C586.118 296.092 585.164 298.287 584.226 300.462ZM580.021 323.25C580.512 320.43 581.02 317.58 581.493 314.705C580.905 316.57 580.315 318.444 579.738 320.32C579.763 321.738 579.787 323.157 579.787 324.562C579.868 324.132 579.938 323.69 580.021 323.25ZM578.74 336.034C578.526 337.495 578.311 338.967 578.122 340.442C578.293 341.323 578.462 342.215 578.633 343.097C578.662 343.268 578.692 343.44 578.736 343.603C578.709 341.094 578.711 338.567 578.74 336.034ZM580.278 356.623C580.368 357.726 580.472 358.829 580.601 359.936C580.964 360.727 581.327 361.518 581.692 362.299C581.174 360.398 580.706 358.513 580.278 356.623ZM600.068 392.213C600.092 392.227 600.104 392.239 600.128 392.252C600.094 392.216 600.058 392.191 600.024 392.155C600.047 392.179 600.058 392.191 600.068 392.213ZM872.041 511.271C885.286 497.613 897.715 482.675 891.557 463.473C885.263 443.824 861.449 429.001 840.643 423.026C828.079 419.42 815.88 417.999 803.97 418.042C812.198 418.92 820.147 420.456 827.965 422.718C849.314 428.889 874.121 444.028 881.409 463.973C888.47 483.28 877.452 498.294 865.566 512.022C852.844 526.733 840.092 542.079 827.414 557.949C827.575 558.106 827.737 558.253 827.897 558.41C842.345 542.432 857.1 526.672 872.041 511.271ZM909.771 695.843C899.844 648.499 870.45 600.834 830.273 561.221C829.311 562.282 828.36 563.355 827.41 564.418C842.156 581.284 856.43 601.025 871.869 625.865C885.608 647.959 900.688 673.99 908.369 699.426C910.544 706.615 912.241 713.805 913.684 720.963C912.753 712.634 911.533 704.236 909.771 695.843ZM1048.15 826.695C1039.69 804.378 1022.74 784.859 1001.63 773.161C995.819 769.94 989.908 767.304 983.926 765.131C988.612 767.243 993.259 769.664 997.872 772.448C1000.59 774.087 1003.29 775.901 1005.9 777.819C1038.86 802.091 1057.05 844.216 1049.76 873.18C1055.11 860.228 1054.66 843.93 1048.15 826.695ZM1004.27 779.833C1001.77 777.992 999.189 776.266 996.589 774.694C989.808 770.594 982.912 767.297 975.921 764.627C981.629 767.331 987.304 770.493 992.921 774.202C995.491 775.906 998.055 777.756 1000.52 779.707C1032.31 804.886 1051.34 848.703 1044.91 877.16C1055.97 849.371 1038.2 804.816 1004.27 779.833ZM998.876 781.52C996.509 779.643 994.052 777.86 991.576 776.231C983.949 771.183 976.185 767.198 968.348 763.979C974.93 767.32 981.485 771.265 987.969 775.967C990.39 777.725 992.806 779.618 995.132 781.616C1026.15 808.1 1045.96 852.762 1040.54 880.793C1050.44 853.683 1031.6 807.449 998.876 781.52ZM993.48 783.217C991.236 781.293 988.902 779.463 986.576 777.77C978.354 771.817 970.012 767.107 961.607 763.291C968.748 767.301 975.875 772.023 983.031 777.723C985.316 779.537 987.583 781.485 989.776 783.507C1019.31 810.786 1040.39 857.183 1036.5 884.54C1045.15 858.298 1024.99 810.121 993.48 783.217ZM978.066 779.486C980.19 781.342 982.31 783.334 984.381 785.403C1014.68 815.759 1034.5 863.598 1032.97 887.977C1040.01 862.189 1018.67 813.137 988.112 784.908C985.988 782.947 983.79 781.06 981.589 779.299C972.477 772.037 963.378 766.391 954.231 761.809C962.137 766.704 970.072 772.473 978.066 779.486ZM767.002 702.076C780.701 724.784 817.303 749.711 878.974 751.553C884.183 751.709 889.507 751.774 894.769 751.821C890.388 751.552 885.945 751.264 881.586 750.924C866.068 749.706 842.806 746.267 820.14 736.771C797.622 727.336 781.157 714.201 771.224 697.754C759.683 678.647 759.886 660.189 765.433 643.34C757.25 661.108 754.516 681.38 767.002 702.076ZM664.935 469.272C669.985 470.466 675.21 471.704 680.282 473.026C711.273 481.128 741.641 494.885 769.699 512.654C758.304 504.47 746.53 497.128 734.577 490.78C720.644 483.359 707.22 477.504 693.551 472.854C686.092 470.313 678.378 468.148 670.204 465.85C662.815 463.768 655.176 461.623 647.794 459.186C643.025 457.619 638.688 456.003 634.631 454.318C630.623 455.061 626.619 455.784 622.618 456.476C636.229 462.481 650.751 465.919 664.935 469.272Z" fill="#ED2228" fill-opacity="0.5"/>
</svg>
