<svg width="14" height="14" viewBox="0 0 14 14" fill="none" xmlns="http://www.w3.org/2000/svg">
<path d="M13.9635 5.09698C13.9187 4.95824 13.8341 4.83575 13.7202 4.74478C13.6063 4.6538 13.4681 4.59836 13.3229 4.58536L9.28215 4.21843L7.68433 0.478529C7.56647 0.204456 7.29817 0.0270996 7.00006 0.0270996C6.70195 0.0270996 6.43362 0.204483 6.31582 0.479213L4.71798 4.21846L0.67655 4.58536C0.531519 4.59865 0.393577 4.65421 0.279825 4.74515C0.166074 4.8361 0.0815158 4.95843 0.0366352 5.09698C-0.0555429 5.38049 0.0295804 5.69142 0.254215 5.88742L3.30859 8.56609L2.40792 12.5335C2.34202 12.8252 2.45522 13.1268 2.69728 13.3017C2.82735 13.3957 2.97958 13.4436 3.13307 13.4436C3.26541 13.4436 3.39667 13.4079 3.51452 13.3374L7.00006 11.2542L10.4843 13.3374C10.7393 13.4908 11.0607 13.4768 11.3022 13.3017C11.4204 13.2161 11.5109 13.0977 11.5624 12.9611C11.6138 12.8245 11.624 12.6758 11.5916 12.5335L10.6909 8.56609L13.7453 5.88797C13.8552 5.79201 13.9344 5.66588 13.9732 5.52525C14.012 5.38463 14.0086 5.2357 13.9635 5.09698Z" fill="url(#paint0_linear_1884_4066)"/>
<defs>
<linearGradient id="paint0_linear_1884_4066" x1="0" y1="6.73533" x2="14" y2="6.73533" gradientUnits="userSpaceOnUse">
<stop stop-color="#FDD505"/>
<stop offset="1" stop-color="#F14A1C"/>
</linearGradient>
</defs>
</svg>
