<svg width="535" height="494" viewBox="0 0 535 494" fill="none" xmlns="http://www.w3.org/2000/svg">
<path d="M23.9195 89.9605C30.3893 87.8586 33.9294 80.9122 31.8266 74.4453C29.7237 67.9784 22.7742 64.4399 16.3044 66.5418C9.83464 68.6437 6.29454 75.5901 8.39739 82.057C10.5002 88.5239 17.4497 92.0625 23.9195 89.9605Z" fill="#ED2228"/>
<path d="M100.486 16.7453C105.112 16.7453 108.862 12.9967 108.862 8.37263C108.862 3.74855 105.112 0 100.486 0C95.8596 0 92.1094 3.74855 92.1094 8.37263C92.1094 12.9967 95.8596 16.7453 100.486 16.7453Z" fill="#45C052"/>
<path d="M525.704 233.447C530.331 233.447 534.081 229.699 534.081 225.075C534.081 220.451 530.331 216.702 525.704 216.702C521.078 216.702 517.328 220.451 517.328 225.075C517.328 229.699 521.078 233.447 525.704 233.447Z" fill="url(#paint0_linear_1934_5866)"/>
<path d="M21.6478 414.692C26.274 414.692 30.0242 410.943 30.0242 406.319C30.0242 401.695 26.274 397.946 21.6478 397.946C17.0217 397.946 13.2715 401.695 13.2715 406.319C13.2715 410.943 17.0217 414.692 21.6478 414.692Z" fill="url(#paint1_linear_1934_5866)"/>
<path d="M514.797 123.061C522.43 116.088 522.963 104.25 515.987 96.6197C509.012 88.9895 497.168 88.4566 489.535 95.4293C481.901 102.402 481.368 114.24 488.344 121.87C495.32 129.5 507.163 130.033 514.797 123.061Z" fill="url(#paint2_linear_1934_5866)"/>
<path d="M468.943 21.8808C472.157 18.9449 472.381 13.9604 469.444 10.7477C466.507 7.53503 461.52 7.31067 458.306 10.2466C455.092 13.1825 454.867 18.1669 457.805 21.3796C460.742 24.5923 465.728 24.8167 468.943 21.8808Z" fill="#ED2228"/>
<path d="M126.598 384.156L86.6875 489.06H121.671L168.973 403.364L126.598 384.156Z" fill="#CED7E2"/>
<path d="M338.964 384.156L378.875 489.06H343.892L296.59 403.364L338.964 384.156Z" fill="#CED7E2"/>
<path d="M250.765 425.034C356.078 425.034 441.451 339.699 441.451 234.433C441.451 129.168 356.078 43.833 250.765 43.833C145.453 43.833 60.0801 129.168 60.0801 234.433C60.0801 339.699 145.453 425.034 250.765 425.034Z" fill="#CED7E2"/>
<path d="M233.029 425.034C338.342 425.034 423.714 339.699 423.714 234.433C423.714 129.168 338.342 43.833 233.029 43.833C127.716 43.833 42.3438 129.168 42.3438 234.433C42.3438 339.699 127.716 425.034 233.029 425.034Z" fill="#E1E5ED"/>
<path d="M233.029 378.246C312.489 378.246 376.905 313.859 376.905 234.433C376.905 155.008 312.489 90.6211 233.029 90.6211C153.568 90.6211 89.1523 155.008 89.1523 234.433C89.1523 313.859 153.568 378.246 233.029 378.246Z" fill="white"/>
<path d="M233.029 335.398C288.814 335.398 334.038 290.195 334.038 234.434C334.038 178.673 288.814 133.47 233.029 133.47C177.243 133.47 132.02 178.673 132.02 234.434C132.02 290.195 177.243 335.398 233.029 335.398Z" fill="#E1E5ED"/>
<path d="M233.03 290.087C263.78 290.087 288.708 265.17 288.708 234.434C288.708 203.697 263.78 178.78 233.03 178.78C202.28 178.78 177.352 203.697 177.352 234.434C177.352 265.17 202.28 290.087 233.03 290.087Z" fill="white"/>
<g filter="url(#filter0_d_1934_5866)">
<path d="M504.029 369.381C504.029 376.769 503.044 384.156 501.566 391.051C500.58 395.484 499.102 399.424 497.624 403.364C488.262 427.99 468.553 447.69 443.917 457.047C441.946 457.54 440.468 458.525 438.497 459.017C429.135 461.973 419.773 463.45 409.426 463.45C357.197 463.45 314.822 421.094 314.822 368.889C314.822 316.683 357.197 274.327 409.426 274.327C461.655 274.82 504.029 317.175 504.029 369.381Z" fill="#45C052"/>
</g>
<path d="M501.565 393.513C500.579 397.453 499.101 401.394 497.623 405.334C488.261 428.974 469.538 447.689 445.887 457.047L392.672 403.856L385.281 396.468L437.51 349.68L454.756 339.83L501.072 386.126L501.565 393.513Z" fill="url(#paint3_linear_1934_5866)"/>
<path d="M399.571 406.319C396.615 406.319 393.658 405.334 391.688 402.871L370.008 381.201C365.573 376.768 365.573 369.873 370.008 365.441C374.442 361.008 381.34 361.008 385.775 365.441L399.571 379.231L438.989 339.83C443.424 335.398 450.322 335.398 454.757 339.83C459.191 344.263 459.191 351.158 454.757 355.591L407.455 402.871C405.484 405.334 402.528 406.319 399.571 406.319Z" fill="url(#paint4_linear_1934_5866)"/>
<path d="M136.453 200.944L234.506 226.555C238.94 227.54 241.404 232.465 240.418 236.897C239.433 241.33 234.506 243.793 230.071 242.808L14.7495 186.662C10.315 185.677 7.85133 180.752 8.83678 176.319C9.82224 171.886 14.7495 169.424 19.184 170.409L93.0931 189.617" fill="#1C3754"/>
<path d="M106.89 177.796L104.427 172.871C101.47 166.961 95.5577 162.036 89.1522 160.558L22.1414 143.32C17.2141 142.335 13.2723 146.768 15.7359 151.2L31.0104 182.228L2.43228 201.436C-1.50954 204.391 -0.524085 210.301 4.40318 211.779L71.414 229.017C77.8195 230.987 85.2104 229.509 90.6304 225.569L113.789 209.809C117.73 207.346 118.716 202.421 116.745 198.481L106.89 177.796Z" fill="#ED2228"/>
<path d="M9.82422 493H453.279" stroke="#EAEEF9" stroke-width="2" stroke-miterlimit="10" stroke-linecap="round" stroke-linejoin="round"/>
<defs>
<filter id="filter0_d_1934_5866" x="306.822" y="271.327" width="205.207" height="205.123" filterUnits="userSpaceOnUse" color-interpolation-filters="sRGB">
<feFlood flood-opacity="0" result="BackgroundImageFix"/>
<feColorMatrix in="SourceAlpha" type="matrix" values="0 0 0 0 0 0 0 0 0 0 0 0 0 0 0 0 0 0 127 0" result="hardAlpha"/>
<feOffset dy="5"/>
<feGaussianBlur stdDeviation="4"/>
<feColorMatrix type="matrix" values="0 0 0 0 0.1125 0 0 0 0 0.295916 0 0 0 0 1 0 0 0 0.22 0"/>
<feBlend mode="normal" in2="BackgroundImageFix" result="effect1_dropShadow_1934_5866"/>
<feBlend mode="normal" in="SourceGraphic" in2="effect1_dropShadow_1934_5866" result="shape"/>
</filter>
<linearGradient id="paint0_linear_1934_5866" x1="525.706" y1="212.626" x2="525.706" y2="233.378" gradientUnits="userSpaceOnUse">
<stop stop-color="#F9DCE4"/>
<stop offset="0.1384" stop-color="#FACED9"/>
<stop offset="0.4011" stop-color="#FBA8BC"/>
<stop offset="0.7573" stop-color="#FD6D8D"/>
<stop offset="1" stop-color="#FF406A"/>
</linearGradient>
<linearGradient id="paint1_linear_1934_5866" x1="21.6496" y1="393.87" x2="21.6496" y2="414.622" gradientUnits="userSpaceOnUse">
<stop stop-color="#F9DCE4"/>
<stop offset="0.1384" stop-color="#FACED9"/>
<stop offset="0.4011" stop-color="#FBA8BC"/>
<stop offset="0.7573" stop-color="#FD6D8D"/>
<stop offset="1" stop-color="#FF406A"/>
</linearGradient>
<linearGradient id="paint2_linear_1934_5866" x1="477.197" y1="92.5545" x2="542.069" y2="135.961" gradientUnits="userSpaceOnUse">
<stop offset="0.1085" stop-color="#F6F5F7"/>
<stop offset="0.2426" stop-color="#F9F9FF"/>
<stop offset="0.4266" stop-color="#E1DDFF"/>
<stop offset="0.6396" stop-color="#D9D3FF"/>
<stop offset="0.8724" stop-color="#D5CFFF"/>
<stop offset="1" stop-color="#C0B7FF"/>
</linearGradient>
<linearGradient id="paint3_linear_1934_5866" x1="418.516" y1="366.502" x2="458.225" y2="406.229" gradientUnits="userSpaceOnUse">
<stop stop-color="#5139F9"/>
<stop offset="1" stop-color="#657EFF" stop-opacity="0"/>
<stop offset="1" stop-color="#624AFF" stop-opacity="0.34"/>
</linearGradient>
<linearGradient id="paint4_linear_1934_5866" x1="436.551" y1="384.543" x2="397.493" y2="345.466" gradientUnits="userSpaceOnUse">
<stop offset="0.0113208" stop-color="#C2D1FF"/>
<stop offset="1" stop-color="white"/>
</linearGradient>
</defs>
</svg>
