<svg width="28" height="28" viewBox="0 0 28 28" fill="none" xmlns="http://www.w3.org/2000/svg">
<path fill-rule="evenodd" clip-rule="evenodd" d="M15.9451 9.62516C15.9451 10.2956 15.6788 10.9385 15.2047 11.4126C14.7307 11.8866 14.0877 12.1529 13.4173 12.1529C12.7469 12.1529 12.104 11.8866 11.6299 11.4126C11.1559 10.9385 10.8895 10.2956 10.8895 9.62516C10.8895 8.95475 11.1559 8.3118 11.6299 7.83775C12.104 7.3637 12.7469 7.09738 13.4173 7.09738C14.0877 7.09738 14.7307 7.3637 15.2047 7.83775C15.6788 8.3118 15.9451 8.95475 15.9451 9.62516V9.62516ZM13.4173 13.4168C14.4229 13.4168 15.3874 13.0174 16.0984 12.3063C16.8095 11.5952 17.209 10.6308 17.209 9.62516C17.209 8.61955 16.8095 7.65513 16.0984 6.94405C15.3874 6.23297 14.4229 5.8335 13.4173 5.8335C12.4117 5.8335 11.4473 6.23297 10.7362 6.94405C10.0251 7.65513 9.62565 8.61955 9.62565 9.62516C9.62565 10.6308 10.0251 11.5952 10.7362 12.3063C11.4473 13.0174 12.4117 13.4168 13.4173 13.4168V13.4168ZM21.0007 19.7363C21.0007 21.0002 19.7368 21.0002 19.7368 21.0002H7.09787C7.09787 21.0002 5.83398 21.0002 5.83398 19.7363C5.83398 18.4724 7.09787 14.6807 13.4173 14.6807C19.7368 14.6807 21.0007 18.4724 21.0007 19.7363ZM19.7368 19.7312C19.7355 19.4203 19.5421 18.485 18.6852 17.6281C17.8612 16.8041 16.3104 15.9446 13.4173 15.9446C10.523 15.9446 8.97348 16.8041 8.14943 17.6281C7.29251 18.485 7.1004 19.4203 7.09787 19.7312H19.7368Z" fill="#4B566B"/>
</svg>
